<svg width="19" height="20" viewBox="0 0 19 20" fill="none" xmlns="http://www.w3.org/2000/svg">
<path id="Vector" d="M5.41468 17.4622C7.20007 18.4955 9.30031 18.8443 11.3238 18.4434C13.3474 18.0426 15.1561 16.9195 16.4127 15.2835C17.6694 13.6475 18.2882 11.6103 18.1538 9.55178C18.0194 7.49322 17.141 5.55379 15.6824 4.09507C14.2237 2.63635 12.2844 1.75791 10.2259 1.62353C8.16745 1.48915 6.13036 2.108 4.49446 3.3647C2.85855 4.62141 1.73549 6.43018 1.33465 8.4538C0.933806 10.4774 1.28255 12.5778 2.31586 14.3632L1.20825 17.6703C1.16663 17.7951 1.16059 17.929 1.19081 18.057C1.22103 18.1851 1.28631 18.3022 1.37933 18.3952C1.47236 18.4882 1.58945 18.5535 1.71749 18.5837C1.84553 18.614 1.97946 18.6079 2.10426 18.5663L5.41468 17.4622Z" stroke="#2F4BF7" stroke-width="1.625" stroke-linecap="round" stroke-linejoin="round"/>
</svg>
