<svg xmlns="http://www.w3.org/2000/svg" viewBox="0 0 794.48 793.7"><defs><style>.cls-1{fill:#fff;}</style></defs><g id="레이어_2" data-name="레이어 2"><g id="레이어_1-2" data-name="레이어 1"><path class="cls-1" d="M788.24,434.39C762.86,506.92,681.5,540,610.85,544.83c-22.27,1-30.91-28.31-12.07-39.67,37.21-24.24,112.61-60.78,112.67-109C711.25,347.47,636,311.16,598.76,287c-19-11.52-9.94-40.77,12.07-39.68,48.77,3.36,98,18.94,136.47,51.36C786.43,331,805.14,385.17,788.24,434.39ZM450.85,384.7c-20.46-18.6-45.33-34.55-64.27-54.77-28.9-30.25-54.83-66.21-62.08-108.18-8.45-47.64,9.28-101.56,47.45-131.42C434.39,44.81,484.8,145.4,506.1,193.82c10,22.74,44.12,12.85,39.87-12.12-13-63.27-37.06-135.39-99.64-168.53-37.63-19.65-86.1-17-121.66,6-33.2,21.64-53.66,51.19-69.55,85.61-21.69,49.25-24.9,106-9.68,157.51,9.4,33.11,26.93,63.26,47.55,90.6a387.88,387.88,0,0,0,68.51,70c31.42,22.84,60.65,50.53,81.67,83.15,33.37,47,40.15,111.16,10.18,161.34-11.47,19.24-29.16,40.78-51.89,43-48.53,4.43-77.79-68.09-91.82-108.39l-2.86-8.71-5.46-20.79-10.93-41.62a40.72,40.72,0,0,0-29-28.72c-27.44-9-56-14.78-82.91-25.09-34.41-13.49-77.73-32-94.56-64.2-19-42.39,25.31-76.49,59.41-98,15.91-9.94,33.2-18.94,50.87-28,20.53-10.88,11.12-42.27-12.41-39.56C126,255.55,67.71,274.86,29,320.07c-39.65,46.24-37.91,114.53.48,160.7,37.2,45.12,90.77,68.12,144.36,84.18,15.3,3.67,30.46,6.86,45.72,9.86,3.77,15.13,8,32,10,40.07,7,23.32,14.95,45.61,25.63,67.93C289.09,756.15,354.54,815.48,441,786c34.11-12.91,57.87-36.12,77.26-64.45,33.3-47.78,45.38-109.22,35.67-166.16C542.4,488.15,500.22,429.78,450.85,384.7ZM601.27,156.45l15.9,8.7a41.74,41.74,0,0,1,16.61,16.61l8.7,15.9a3.4,3.4,0,0,0,6,0l8.69-15.9a41.77,41.77,0,0,1,16.62-16.61l15.9-8.7a3.41,3.41,0,0,0,0-6l-15.9-8.7a41.77,41.77,0,0,1-16.62-16.61l-8.69-15.9a3.41,3.41,0,0,0-6,0l-8.7,15.9a41.74,41.74,0,0,1-16.61,16.61l-15.9,8.7A3.4,3.4,0,0,0,601.27,156.45Z"/></g></g></svg>