<svg width="13" height="13" viewBox="0 0 13 13" fill="none" xmlns="http://www.w3.org/2000/svg">
<path d="M12.2187 3.46254L9.53791 0.781244C9.44876 0.69208 9.34292 0.62135 9.22643 0.573094C9.10995 0.524837 8.98509 0.5 8.859 0.5C8.73291 0.5 8.60806 0.524837 8.49157 0.573094C8.37508 0.62135 8.26924 0.69208 8.18009 0.781244L0.781408 8.18016C0.691875 8.26898 0.62089 8.37471 0.572581 8.4912C0.524272 8.60769 0.499602 8.73262 0.500005 8.85874V11.54C0.500005 11.7946 0.601149 12.0388 0.781186 12.2188C0.961223 12.3989 1.20541 12.5 1.46002 12.5H4.14145C4.26756 12.5004 4.3925 12.4757 4.509 12.4274C4.6255 12.3791 4.73123 12.3081 4.82006 12.2186L12.2187 4.82029C12.3079 4.73115 12.3786 4.62531 12.4269 4.50883C12.4752 4.39235 12.5 4.2675 12.5 4.14142C12.5 4.01533 12.4752 3.89049 12.4269 3.774C12.3786 3.65752 12.3079 3.55169 12.2187 3.46254ZM1.65862 8.66014L7.07968 3.23935L8.08049 4.24071L2.66003 9.6609L1.65862 8.66014ZM1.46002 9.8187L3.18144 11.54H1.46002V9.8187ZM4.34005 11.3414L3.33864 10.3401L8.7597 4.91929L9.76051 5.92065L4.34005 11.3414Z" fill="#9CA3AF"/>
</svg>
