<svg width="14" height="14" viewBox="0 0 14 14" fill="none" xmlns="http://www.w3.org/2000/svg">
<path d="M12.8676 12.1601L9.73819 9.03131C10.6452 7.94238 11.0975 6.54568 11.001 5.13177C10.9044 3.71786 10.2665 2.3956 9.2199 1.44005C8.1733 0.484494 6.79859 -0.0307768 5.38176 0.00142314C3.96492 0.0336231 2.61504 0.610815 1.61293 1.61293C0.610815 2.61504 0.0336231 3.96492 0.00142314 5.38176C-0.0307768 6.79859 0.484494 8.1733 1.44005 9.2199C2.3956 10.2665 3.71786 10.9044 5.13177 11.001C6.54568 11.0975 7.94238 10.6452 9.03131 9.73819L12.1601 12.8676C12.2065 12.914 12.2617 12.9509 12.3224 12.976C12.3831 13.0012 12.4481 13.0141 12.5138 13.0141C12.5795 13.0141 12.6446 13.0012 12.7053 12.976C12.766 12.9509 12.8211 12.914 12.8676 12.8676C12.914 12.8211 12.9509 12.766 12.976 12.7053C13.0012 12.6446 13.0141 12.5795 13.0141 12.5138C13.0141 12.4481 13.0012 12.3831 12.976 12.3224C12.9509 12.2617 12.914 12.2065 12.8676 12.1601ZM1.01381 5.51381C1.01381 4.6238 1.27773 3.75377 1.7722 3.01375C2.26667 2.27373 2.96947 1.69695 3.79174 1.35636C4.61401 1.01576 5.51881 0.926647 6.39172 1.10028C7.26464 1.27391 8.06646 1.7025 8.6958 2.33183C9.32513 2.96117 9.75372 3.76299 9.92735 4.63591C10.101 5.50882 10.0119 6.41362 9.67127 7.23589C9.33068 8.05816 8.7539 8.76096 8.01388 9.25543C7.27386 9.7499 6.40383 10.0138 5.51381 10.0138C4.32075 10.0125 3.17692 9.53796 2.3333 8.69433C1.48967 7.85071 1.01514 6.70688 1.01381 5.51381Z" fill="white"/>
</svg>
