<svg width="25" height="25" viewBox="0 0 25 25" fill="none" xmlns="http://www.w3.org/2000/svg">
<path d="M22.0926 9.01125C21.885 8.77193 21.6297 8.58028 21.3436 8.44903C21.0576 8.31778 20.7474 8.24994 20.4336 8.25H15.2722V6.75C15.2722 5.75544 14.8838 4.80161 14.1924 4.09835C13.501 3.39509 12.5632 3 11.5855 3C11.4485 2.9999 11.3142 3.03862 11.1976 3.11181C11.0811 3.185 10.9868 3.28977 10.9255 3.41438L7.44344 10.5H3.47469C3.08358 10.5 2.70848 10.658 2.43193 10.9393C2.15537 11.2206 2 11.6022 2 12V20.25C2 20.6478 2.15537 21.0294 2.43193 21.3107C2.70848 21.592 3.08358 21.75 3.47469 21.75H19.3276C19.8665 21.7502 20.3869 21.5503 20.7912 21.1878C21.1954 20.8253 21.4557 20.3251 21.523 19.7812L22.629 10.7812C22.6682 10.4644 22.6407 10.1427 22.5482 9.8375C22.4557 9.53232 22.3004 9.25066 22.0926 9.01125ZM3.47469 12H7.16141V20.25H3.47469V12ZM21.1654 10.5938L20.0594 19.5938C20.0369 19.775 19.9502 19.9418 19.8154 20.0626C19.6807 20.1834 19.5072 20.2501 19.3276 20.25H8.63609V11.4272L12.0196 4.54313C12.5211 4.64521 12.9723 4.9209 13.2964 5.32326C13.6206 5.72562 13.7976 6.2298 13.7975 6.75V9C13.7975 9.19891 13.8752 9.38968 14.0135 9.53033C14.1517 9.67098 14.3393 9.75 14.5348 9.75H20.4336C20.5382 9.74996 20.6417 9.77258 20.737 9.81634C20.8324 9.86011 20.9176 9.92402 20.9868 10.0038C21.056 10.0836 21.1077 10.1775 21.1385 10.2792C21.1693 10.3809 21.1785 10.4882 21.1654 10.5938Z" fill="#FF4646"/>
</svg>
