<svg width="18" height="18" viewBox="0 0 18 18" fill="none" xmlns="http://www.w3.org/2000/svg">
<g id="x letter">
<path id="Vector" d="M17.736 16.4632C17.8197 16.5468 17.886 16.646 17.9313 16.7552C17.9766 16.8644 18 16.9815 18 17.0997C18 17.218 17.9768 17.3351 17.9315 17.4443C17.8863 17.5535 17.82 17.6528 17.7364 17.7364C17.6528 17.82 17.5535 17.8863 17.4443 17.9315C17.3351 17.9768 17.218 18 17.0997 18C16.9815 18 16.8644 17.9766 16.7552 17.9313C16.646 17.886 16.5468 17.8197 16.4632 17.736L8.9996 10.2724L1.53597 17.736C1.36715 17.9046 1.13829 17.9993 0.899701 17.9992C0.661109 17.9991 0.43231 17.9043 0.263599 17.7356C0.0948885 17.5669 7.48597e-05 17.3381 4.43097e-08 17.0995C-7.47711e-05 16.8609 0.0945957 16.632 0.2632 16.4632L7.72683 8.9996L0.2632 1.53597C0.0945957 1.36715 -7.47711e-05 1.13829 4.43097e-08 0.899701C7.48597e-05 0.661109 0.0948885 0.43231 0.263599 0.263599C0.43231 0.0948885 0.661109 7.48597e-05 0.899701 4.43097e-08C1.13829 -7.47711e-05 1.36715 0.0945957 1.53597 0.2632L8.9996 7.72683L16.4632 0.2632C16.632 0.0945957 16.8609 -7.47711e-05 17.0995 4.43097e-08C17.3381 7.48597e-05 17.5669 0.0948885 17.7356 0.263599C17.9043 0.43231 17.9991 0.661109 17.9992 0.899701C17.9993 1.13829 17.9046 1.36715 17.736 1.53597L10.2724 8.9996L17.736 16.4632Z" fill="#9CA3AF"/>
</g>
</svg>
