<svg width="24" height="24" viewBox="0 0 24 24" fill="none" xmlns="http://www.w3.org/2000/svg">
<path d="M22.5005 5.24916V9.74916C22.5005 9.94807 22.4215 10.1388 22.2808 10.2795C22.1402 10.4201 21.9494 10.4992 21.7505 10.4992H17.2505C17.0516 10.4992 16.8608 10.4201 16.7202 10.2795C16.5795 10.1388 16.5005 9.94807 16.5005 9.74916C16.5005 9.55024 16.5795 9.35948 16.7202 9.21883C16.8608 9.07818 17.0516 8.99916 17.2505 8.99916H19.8192L17.3264 6.71541L17.303 6.69291C16.2606 5.65087 14.9342 4.93908 13.4896 4.64648C12.045 4.35388 10.5462 4.49342 9.1804 5.04769C7.81463 5.60195 6.64246 6.54636 5.81031 7.76293C4.97817 8.97951 4.52294 10.4143 4.50149 11.8881C4.48005 13.3619 4.89334 14.8093 5.68974 16.0496C6.48615 17.2899 7.63035 18.268 8.97941 18.8617C10.3285 19.4555 11.8226 19.6386 13.2751 19.3881C14.7276 19.1377 16.0741 18.4648 17.1464 17.4535C17.291 17.3168 17.484 17.2431 17.6829 17.2486C17.8819 17.2541 18.0705 17.3385 18.2072 17.4831C18.344 17.6276 18.4177 17.8206 18.4121 18.0196C18.4066 18.2185 18.3223 18.4071 18.1777 18.5438C16.5103 20.1252 14.2985 21.0043 12.0005 20.9992H11.8767C10.4028 20.979 8.95628 20.597 7.66446 19.8869C6.37265 19.1768 5.27504 18.1602 4.46811 16.9265C3.66118 15.6929 3.16964 14.2799 3.03668 12.8117C2.90373 11.3436 3.13343 9.8653 3.7056 8.50674C4.27777 7.14818 5.17489 5.95096 6.31811 5.02031C7.46133 4.08966 8.81566 3.45407 10.262 3.1694C11.7084 2.88474 13.2026 2.95971 14.6132 3.38774C16.0239 3.81576 17.3077 4.58374 18.3521 5.62416L21.0005 8.04291V5.24916C21.0005 5.05024 21.0795 4.85948 21.2202 4.71883C21.3608 4.57817 21.5516 4.49916 21.7505 4.49916C21.9494 4.49916 22.1402 4.57817 22.2808 4.71883C22.4215 4.85948 22.5005 5.05024 22.5005 5.24916Z" fill="#4B5563"/>
</svg>
