<svg width="1618" height="387" viewBox="0 0 1618 387" fill="none" xmlns="http://www.w3.org/2000/svg">
<g clip-path="url(#clip0_453_716)">
<path d="M517.94 136.26H629.66V166.05H553.04V196.52H624.33V225.97H553.04V282.84H517.94V136.27V136.26Z" fill="white"/>
<path d="M677.89 276.66C665.58 270.28 656.05 261.31 649.32 249.75C642.58 238.18 639.21 224.78 639.21 209.55C639.21 194.32 642.58 180.92 649.32 169.35C656.05 157.78 665.58 148.81 677.89 142.44C690.2 136.07 704.38 132.88 720.43 132.88C736.48 132.88 750.66 136.07 762.97 142.44C775.28 148.82 784.8 157.79 791.54 169.35C798.27 180.92 801.64 194.31 801.64 209.55C801.64 224.79 798.27 238.18 791.54 249.75C784.8 261.32 775.28 270.29 762.97 276.66C750.66 283.03 736.48 286.22 720.43 286.22C704.38 286.22 690.2 283.03 677.89 276.66ZM753.69 243.65C761.65 235.47 765.63 224.1 765.63 209.55C765.63 195 761.65 183.63 753.69 175.45C745.72 167.27 734.64 163.18 720.43 163.18C706.22 163.18 695.13 167.27 687.17 175.45C679.2 183.63 675.23 195 675.23 209.55C675.23 224.1 679.21 235.47 687.17 243.65C695.13 251.83 706.22 255.92 720.43 255.92C734.64 255.92 745.72 251.83 753.69 243.65Z" fill="white"/>
<path d="M919.52 170.54C912.36 165.86 903.26 163.51 892.24 163.51C878.15 163.51 867.16 167.57 859.26 175.7C851.36 183.82 847.41 195.11 847.41 209.55C847.41 223.99 851.36 235.28 859.26 243.4C867.16 251.52 878.15 255.59 892.24 255.59C904.37 255.59 914.16 252.88 921.64 247.47C929.11 242.05 933.58 234.44 935.05 224.62H971.06C970.32 236.81 966.53 247.55 959.67 256.86C952.81 266.17 943.56 273.39 931.92 278.52C920.28 283.65 907.05 286.22 892.23 286.22C876.18 286.22 862.06 283.03 849.87 276.66C837.68 270.28 828.22 261.31 821.48 249.75C814.74 238.18 811.38 224.78 811.38 209.55C811.38 194.32 814.75 180.92 821.48 169.35C828.22 157.78 837.68 148.81 849.87 142.44C862.06 136.07 876.17 132.88 892.23 132.88C906.68 132.88 919.57 135.25 930.91 139.99C942.24 144.73 951.25 151.41 957.92 160.05C964.6 168.68 968.36 178.64 969.22 189.92H933.21C931.25 181.69 926.69 175.22 919.52 170.54Z" fill="white"/>
<path d="M1117.69 259.73C1111.93 268.13 1103.82 274.65 1093.34 279.28C1082.86 283.9 1070.83 286.22 1057.23 286.22C1043.63 286.22 1031.44 283.9 1021.03 279.28C1010.61 274.65 1002.53 268.16 996.77 259.82C991.01 251.47 988.14 241.77 988.14 230.71V136.27H1023.42V227.84C1023.42 236.64 1026.39 243.53 1032.33 248.49C1038.27 253.46 1046.57 255.94 1057.23 255.94C1067.89 255.94 1076.03 253.43 1082.03 248.41C1088.03 243.39 1091.04 236.54 1091.04 227.85V136.11H1126.32V230.72C1126.32 241.67 1123.44 251.34 1117.69 259.75V259.73Z" fill="white"/>
<path d="M1175.2 280.13C1165.52 276.07 1157.99 270.26 1152.6 262.7C1147.21 255.14 1144.39 246.34 1144.15 236.3H1178.14C1178.63 242.96 1181.51 248.12 1186.77 251.79C1192.04 255.46 1199.51 257.29 1209.19 257.29C1217.15 257.29 1223.22 255.94 1227.38 253.23C1231.54 250.52 1233.63 246.63 1233.63 241.55C1233.63 238.17 1231.7 235.52 1227.84 233.6C1223.98 231.68 1217.7 229.43 1209.01 226.83C1204.48 225.59 1200.13 224.23 1195.96 222.77C1185.3 219.05 1176.63 215.38 1169.96 211.77C1163.28 208.16 1157.99 203.59 1154.07 198.06C1150.15 192.53 1148.19 185.65 1148.19 177.41C1148.19 168.61 1150.55 160.85 1155.26 154.14C1159.98 147.43 1166.68 142.21 1175.38 138.48C1184.08 134.76 1194.24 132.9 1205.88 132.9C1217.52 132.9 1227.71 134.76 1236.47 138.48C1245.23 142.2 1252.06 147.45 1256.96 154.22C1261.86 160.99 1264.43 168.83 1264.67 177.74H1231.05C1230.68 172.78 1228.26 168.88 1223.79 166.06C1219.31 163.24 1213.1 161.83 1205.14 161.83C1197.67 161.83 1192 162.99 1188.14 165.3C1184.28 167.61 1182.35 170.8 1182.35 174.86C1182.35 177.91 1183.88 180.59 1186.94 182.9C1190 185.21 1193.77 187.25 1198.24 188.99C1202.71 190.74 1208.99 192.91 1217.07 195.51L1224.97 198.05C1234.28 201.21 1241.94 204.37 1247.94 207.53C1253.94 210.69 1258.78 214.89 1262.46 220.14C1266.13 225.39 1267.97 232.02 1267.97 240.03C1267.97 249.17 1265.55 257.24 1260.71 264.23C1255.87 271.23 1248.95 276.64 1239.95 280.48C1230.94 284.31 1220.5 286.23 1208.62 286.23C1196 286.23 1184.85 284.2 1175.18 280.14L1175.2 280.13Z" fill="white"/>
<path d="M1308.6 280.13C1298.92 276.07 1291.39 270.26 1286 262.7C1280.61 255.14 1277.79 246.34 1277.55 236.3H1311.54C1312.03 242.96 1314.91 248.12 1320.17 251.79C1325.44 255.46 1332.91 257.29 1342.59 257.29C1350.55 257.29 1356.62 255.94 1360.78 253.23C1364.94 250.52 1367.03 246.63 1367.03 241.55C1367.03 238.17 1365.1 235.52 1361.24 233.6C1357.38 231.68 1351.1 229.43 1342.41 226.83C1337.88 225.59 1333.53 224.23 1329.36 222.77C1318.7 219.05 1310.03 215.38 1303.36 211.77C1296.68 208.16 1291.39 203.59 1287.47 198.06C1283.55 192.53 1281.59 185.65 1281.59 177.41C1281.59 168.61 1283.95 160.85 1288.66 154.14C1293.38 147.43 1300.08 142.21 1308.78 138.48C1317.48 134.76 1327.64 132.9 1339.28 132.9C1350.92 132.9 1361.11 134.76 1369.87 138.48C1378.63 142.2 1385.46 147.45 1390.36 154.22C1395.26 160.99 1397.83 168.83 1398.07 177.74H1364.45C1364.08 172.78 1361.66 168.88 1357.19 166.06C1352.71 163.24 1346.5 161.83 1338.54 161.83C1331.07 161.83 1325.4 162.99 1321.54 165.3C1317.68 167.61 1315.75 170.8 1315.75 174.86C1315.75 177.91 1317.28 180.59 1320.34 182.9C1323.4 185.21 1327.17 187.25 1331.64 188.99C1336.11 190.74 1342.39 192.91 1350.47 195.51L1358.37 198.05C1367.68 201.21 1375.34 204.37 1381.34 207.53C1387.34 210.69 1392.18 214.89 1395.86 220.14C1399.53 225.39 1401.37 232.02 1401.37 240.03C1401.37 249.17 1398.95 257.24 1394.11 264.23C1389.27 271.23 1382.35 276.64 1373.35 280.48C1364.34 284.31 1353.9 286.23 1342.02 286.23C1329.4 286.23 1318.25 284.2 1308.58 280.14L1308.6 280.13Z" fill="white"/>
<path d="M1421.52 182.04C1420.35 180.86 1419.77 179.14 1419.77 176.88V154.54H1452.48V183.82H1426.2C1424.24 183.82 1422.68 183.23 1421.52 182.04ZM1421.52 261.59C1420.35 260.41 1419.77 258.69 1419.77 256.43V234.09H1452.48V263.37H1426.2C1424.24 263.37 1422.68 262.78 1421.52 261.59Z" fill="white"/>
<path d="M1608.66 259.73C1602.9 268.13 1594.79 274.65 1584.31 279.28C1573.84 283.9 1561.8 286.22 1548.2 286.22C1534.6 286.22 1522.41 283.9 1512 279.28C1501.59 274.65 1493.5 268.16 1487.75 259.82C1481.99 251.47 1479.11 241.77 1479.11 230.71V136.27H1514.39V227.84C1514.39 236.64 1517.36 243.53 1523.3 248.49C1529.24 253.46 1537.54 255.94 1548.2 255.94C1558.86 255.94 1567 253.43 1573.01 248.41C1579.01 243.39 1582.01 236.54 1582.01 227.85V136.11H1617.29V230.72C1617.29 241.67 1614.41 251.34 1608.65 259.75L1608.66 259.73Z" fill="white"/>
<path d="M377.9 231.48C428.47 194.5 453.64 146.17 440.42 110.04C437.78 102.84 432.81 93.8901 422.84 84.8501C412.97 75.9001 400.08 70.4701 387.2 67.4801C375.62 64.7901 363.64 64.0801 351.76 64.5601C346.58 64.7701 341.39 65.2101 336.21 64.9101C330.94 64.6001 325.31 63.5801 320.98 60.4501C316.5 57.2101 312.89 53.2801 309.71 48.7601C306.37 44.0201 302.99 39.1801 301.18 33.6701C300.84 32.6401 300.28 31.3701 299.2 31.4001C298.13 31.4301 297.62 32.7101 297.35 33.7501C295.55 40.7001 292.1 48.1701 287.06 53.3501C286.99 53.1201 286.92 52.8801 286.83 52.6601C279.42 33.4601 262.96 17.9801 243.44 9.41008C223.92 0.840077 201.58 -1.11993 180.33 2.01007C150.24 6.44007 121.44 21.5001 103.84 45.1301C93.2401 59.3701 86.8601 76.5101 86.2801 93.9401C85.7001 111.37 91.0201 129.03 101.7 143.21C112.98 158.19 129.71 168.85 147.53 176.1C189.8 193.31 246 191.47 277.77 227.46C279.24 229.13 282.35 231.82 282.91 233.96C283.77 237.23 280.73 237.98 278.01 239.47C271.93 242.81 265.77 245.99 259.51 249.01C237.93 259.42 215.28 267.88 191.88 273.79C164.97 280.59 137.11 284 109.26 283.38C79.6901 282.72 34.8301 281.71 23.1001 258.3C12.4801 237.1 31.0401 201.53 71.3501 168.04C73.4001 166.34 71.1301 163.28 68.7601 164.55C43.1801 178.24 0.590132 206.96 0.940132 246.26C1.11013 265.71 11.8001 280.3 15.3601 284.72C47.0501 324.13 118.28 318.31 159.02 314.99C190.53 312.42 242.08 304.08 300.69 274.04C301.68 273.53 302.92 273.78 303.58 274.65C309.05 281.74 320.22 298.69 316.73 318.51C310.5 353.93 263.01 366.58 255.54 368.68C213.72 380.42 174.78 361.29 152.84 346.64C150.59 345.14 147.99 348.03 149.92 349.9C163.32 362.84 183.91 377.77 211.93 383.73C283.42 398.92 355.15 349.93 373.3 284.67C377.95 267.94 379 250.59 377.01 233.42C376.92 232.68 377.26 231.95 377.88 231.49L377.9 231.48ZM349.78 196.99C348.95 197.36 347.95 197.21 347.27 196.61C324.61 176.63 297.53 159.65 268.25 149.97C243.82 141.88 217.21 142.84 192.55 135.33C158.83 125.05 128.76 92.3801 143.7 57.1201C154.64 31.3201 188.22 18.7301 215.9 20.4401C241.75 22.0401 266.18 35.0301 282.82 53.9101C283.41 54.5801 284.31 55.2701 285.15 55.5201C285.13 55.5401 285.11 55.5601 285.09 55.5801C277.13 63.8401 267.99 67.6101 261.17 69.3601C259.59 69.7601 259.58 71.9801 261.15 72.3901C267.35 74.0001 275.4 77.2801 282.82 84.1001C291.97 92.5101 295.92 102.39 297.65 109.18C298.04 110.71 300.19 110.75 300.65 109.24C302.62 102.83 305.74 96.7801 309.82 91.4601C313.72 86.3601 318.96 80.7101 325.39 79.0401C333.54 76.9201 342.68 76.7301 351.04 77.1001C370.48 77.9801 389.39 84.5501 403.77 97.9901C407.95 101.89 411.78 106.43 413.91 111.79C416.2 117.55 416.11 124.21 415 130.23C412.43 144.17 403.91 156.61 394.25 166.66C381.73 179.68 366.2 189.66 349.76 197.01L349.78 196.99Z" fill="white"/>
</g>
<defs>
<clipPath id="clip0_453_716">
<rect width="1618" height="387" fill="white"/>
</clipPath>
</defs>
</svg>
