<svg width="1617" height="387" viewBox="0 0 1617 387" fill="none" xmlns="http://www.w3.org/2000/svg">
<g clip-path="url(#clip0_455_730)">
<path d="M517.45 136.42H629.17V166.21H552.55V196.68H623.84V226.13H552.55V283H517.45V136.43V136.42Z" fill="url(#paint0_linear_455_730)"/>
<path d="M677.41 276.81C665.1 270.43 655.57 261.46 648.84 249.9C642.1 238.33 638.73 224.93 638.73 209.7C638.73 194.47 642.1 181.07 648.84 169.5C655.57 157.93 665.1 148.96 677.41 142.59C689.72 136.22 703.9 133.03 719.95 133.03C736 133.03 750.18 136.22 762.49 142.59C774.8 148.97 784.32 157.94 791.06 169.5C797.79 181.07 801.16 194.46 801.16 209.7C801.16 224.94 797.79 238.33 791.06 249.9C784.32 261.47 774.8 270.44 762.49 276.81C750.18 283.18 736 286.37 719.95 286.37C703.9 286.37 689.72 283.18 677.41 276.81ZM753.21 243.81C761.17 235.63 765.15 224.26 765.15 209.71C765.15 195.16 761.17 183.79 753.21 175.61C745.24 167.43 734.16 163.34 719.95 163.34C705.74 163.34 694.65 167.43 686.69 175.61C678.72 183.79 674.75 195.16 674.75 209.71C674.75 224.26 678.73 235.63 686.69 243.81C694.65 251.99 705.74 256.08 719.95 256.08C734.16 256.08 745.24 251.99 753.21 243.81Z" fill="url(#paint1_linear_455_730)"/>
<path d="M919.03 170.69C911.87 166.01 902.77 163.66 891.75 163.66C877.66 163.66 866.67 167.72 858.77 175.85C850.87 183.97 846.92 195.26 846.92 209.7C846.92 224.14 850.87 235.43 858.77 243.55C866.67 251.67 877.66 255.74 891.75 255.74C903.88 255.74 913.67 253.03 921.15 247.62C928.62 242.2 933.09 234.59 934.56 224.77H970.57C969.83 236.96 966.04 247.7 959.18 257.01C952.32 266.32 943.07 273.54 931.43 278.67C919.79 283.8 906.56 286.37 891.74 286.37C875.69 286.37 861.57 283.18 849.38 276.81C837.19 270.43 827.73 261.46 820.99 249.9C814.25 238.33 810.89 224.93 810.89 209.7C810.89 194.47 814.26 181.07 820.99 169.5C827.73 157.93 837.19 148.96 849.38 142.59C861.57 136.22 875.68 133.03 891.74 133.03C906.19 133.03 919.08 135.4 930.42 140.14C941.75 144.88 950.76 151.56 957.43 160.2C964.11 168.83 967.87 178.79 968.73 190.07H932.72C930.76 181.84 926.2 175.37 919.03 170.69Z" fill="url(#paint2_linear_455_730)"/>
<path d="M1117.21 259.89C1111.45 268.29 1103.34 274.81 1092.86 279.44C1082.38 284.06 1070.35 286.38 1056.75 286.38C1043.15 286.38 1030.96 284.06 1020.55 279.44C1010.13 274.81 1002.05 268.32 996.29 259.98C990.53 251.63 987.66 241.93 987.66 230.87V136.43H1022.94V228C1022.94 236.8 1025.91 243.69 1031.85 248.65C1037.79 253.62 1046.09 256.1 1056.75 256.1C1067.41 256.1 1075.55 253.59 1081.55 248.57C1087.55 243.55 1090.56 236.7 1090.56 228.01V136.27H1125.84V230.88C1125.84 241.83 1122.96 251.5 1117.21 259.91V259.89Z" fill="url(#paint3_linear_455_730)"/>
<path d="M1174.72 280.28C1165.04 276.22 1157.51 270.41 1152.12 262.85C1146.73 255.29 1143.91 246.49 1143.67 236.45H1177.66C1178.15 243.11 1181.03 248.27 1186.29 251.94C1191.56 255.61 1199.03 257.44 1208.71 257.44C1216.67 257.44 1222.74 256.09 1226.9 253.38C1231.06 250.67 1233.15 246.78 1233.15 241.7C1233.15 238.32 1231.22 235.67 1227.36 233.75C1223.5 231.83 1217.22 229.58 1208.53 226.98C1204 225.74 1199.65 224.38 1195.48 222.92C1184.82 219.2 1176.15 215.53 1169.48 211.92C1162.8 208.31 1157.51 203.74 1153.59 198.21C1149.67 192.68 1147.71 185.8 1147.71 177.56C1147.71 168.76 1150.07 161 1154.78 154.29C1159.5 147.58 1166.2 142.36 1174.9 138.63C1183.6 134.91 1193.76 133.05 1205.4 133.05C1217.04 133.05 1227.23 134.91 1235.99 138.63C1244.75 142.35 1251.58 147.6 1256.48 154.37C1261.38 161.14 1263.95 168.98 1264.19 177.89H1230.57C1230.2 172.93 1227.78 169.03 1223.31 166.21C1218.83 163.39 1212.62 161.98 1204.66 161.98C1197.19 161.98 1191.52 163.14 1187.66 165.45C1183.8 167.76 1181.87 170.95 1181.87 175.01C1181.87 178.06 1183.4 180.74 1186.46 183.05C1189.52 185.36 1193.29 187.4 1197.76 189.14C1202.23 190.89 1208.51 193.06 1216.59 195.66L1224.49 198.2C1233.8 201.36 1241.46 204.52 1247.46 207.68C1253.46 210.84 1258.3 215.04 1261.98 220.29C1265.65 225.54 1267.49 232.17 1267.49 240.18C1267.49 249.32 1265.07 257.39 1260.23 264.38C1255.39 271.38 1248.47 276.79 1239.47 280.63C1230.46 284.46 1220.02 286.38 1208.14 286.38C1195.52 286.38 1184.37 284.35 1174.7 280.29L1174.72 280.28Z" fill="url(#paint4_linear_455_730)"/>
<path d="M1308.12 280.28C1298.44 276.22 1290.91 270.41 1285.52 262.85C1280.13 255.29 1277.31 246.49 1277.07 236.45H1311.06C1311.55 243.11 1314.43 248.27 1319.69 251.94C1324.96 255.61 1332.43 257.44 1342.11 257.44C1350.07 257.44 1356.14 256.09 1360.3 253.38C1364.46 250.67 1366.55 246.78 1366.55 241.7C1366.55 238.32 1364.62 235.67 1360.76 233.75C1356.9 231.83 1350.62 229.58 1341.93 226.98C1337.4 225.74 1333.05 224.38 1328.88 222.92C1318.22 219.2 1309.55 215.53 1302.88 211.92C1296.2 208.31 1290.91 203.74 1286.99 198.21C1283.07 192.68 1281.11 185.8 1281.11 177.56C1281.11 168.76 1283.47 161 1288.18 154.29C1292.9 147.58 1299.6 142.36 1308.3 138.63C1317 134.91 1327.16 133.05 1338.8 133.05C1350.44 133.05 1360.63 134.91 1369.39 138.63C1378.15 142.35 1384.98 147.6 1389.88 154.37C1394.78 161.14 1397.35 168.98 1397.59 177.89H1363.97C1363.6 172.93 1361.18 169.03 1356.71 166.21C1352.23 163.39 1346.02 161.98 1338.06 161.98C1330.59 161.98 1324.92 163.14 1321.06 165.45C1317.2 167.76 1315.27 170.95 1315.27 175.01C1315.27 178.06 1316.8 180.74 1319.86 183.05C1322.92 185.36 1326.69 187.4 1331.16 189.14C1335.63 190.89 1341.91 193.06 1349.99 195.66L1357.89 198.2C1367.2 201.36 1374.86 204.52 1380.86 207.68C1386.86 210.84 1391.7 215.04 1395.38 220.29C1399.05 225.54 1400.89 232.17 1400.89 240.18C1400.89 249.32 1398.47 257.39 1393.63 264.38C1388.79 271.38 1381.87 276.79 1372.87 280.63C1363.86 284.46 1353.42 286.38 1341.54 286.38C1328.92 286.38 1317.77 284.35 1308.1 280.29L1308.12 280.28Z" fill="url(#paint5_linear_455_730)"/>
<path d="M1421.03 182.2C1419.86 181.02 1419.28 179.3 1419.28 177.04V154.7H1451.99V183.98H1425.71C1423.75 183.98 1422.19 183.39 1421.03 182.2ZM1421.03 261.75C1419.86 260.57 1419.28 258.85 1419.28 256.59V234.25H1451.99V263.53H1425.71C1423.75 263.53 1422.19 262.94 1421.03 261.75Z" fill="url(#paint6_linear_455_730)"/>
<path d="M1608.18 259.89C1602.42 268.29 1594.31 274.81 1583.83 279.44C1573.36 284.06 1561.32 286.38 1547.72 286.38C1534.12 286.38 1521.93 284.06 1511.52 279.44C1501.11 274.81 1493.02 268.32 1487.27 259.98C1481.51 251.63 1478.63 241.93 1478.63 230.87V136.43H1513.91V228C1513.91 236.8 1516.88 243.69 1522.82 248.65C1528.76 253.62 1537.06 256.1 1547.72 256.1C1558.38 256.1 1566.52 253.59 1572.53 248.57C1578.53 243.55 1581.53 236.7 1581.53 228.01V136.27H1616.81V230.88C1616.81 241.83 1613.93 251.5 1608.17 259.91L1608.18 259.89Z" fill="url(#paint7_linear_455_730)"/>
<path d="M377.42 231.63C427.99 194.65 453.16 146.32 439.94 110.19C437.3 102.99 432.33 94.04 422.36 85C412.49 76.05 399.6 70.62 386.72 67.63C375.14 64.94 363.16 64.23 351.28 64.71C346.1 64.92 340.91 65.36 335.73 65.06C330.46 64.75 324.83 63.73 320.5 60.6C316.02 57.36 312.41 53.43 309.23 48.91C305.89 44.17 302.51 39.33 300.7 33.82C300.36 32.79 299.8 31.52 298.72 31.55C297.65 31.58 297.14 32.86 296.87 33.9C295.07 40.85 291.62 48.32 286.58 53.5C286.51 53.27 286.44 53.03 286.35 52.81C278.94 33.61 262.48 18.13 242.96 9.55997C223.44 0.989968 201.1 -0.970026 179.85 2.15997C149.76 6.58997 120.96 21.65 103.36 45.28C92.7599 59.52 86.3799 76.66 85.7999 94.09C85.2199 111.52 90.5399 129.18 101.22 143.36C112.5 158.34 129.23 169 147.05 176.25C189.32 193.46 245.52 191.62 277.29 227.61C278.76 229.28 281.87 231.97 282.43 234.11C283.29 237.38 280.25 238.13 277.53 239.62C271.45 242.96 265.29 246.14 259.03 249.16C237.45 259.57 214.8 268.03 191.4 273.94C164.49 280.74 136.63 284.15 108.78 283.53C79.2099 282.87 34.3499 281.86 22.6199 258.45C11.9999 237.25 30.5599 201.68 70.8699 168.19C72.9199 166.49 70.6499 163.43 68.2799 164.7C42.6999 178.39 0.109907 207.11 0.459907 246.41C0.629907 265.86 11.3199 280.45 14.8799 284.87C46.5699 324.28 117.8 318.46 158.54 315.14C190.05 312.57 241.6 304.23 300.21 274.19C301.2 273.68 302.44 273.93 303.1 274.8C308.57 281.89 319.74 298.84 316.25 318.66C310.02 354.08 262.53 366.73 255.06 368.83C213.24 380.57 174.3 361.44 152.36 346.79C150.11 345.29 147.51 348.18 149.44 350.05C162.84 362.99 183.43 377.92 211.45 383.88C282.94 399.07 354.67 350.08 372.82 284.82C377.47 268.09 378.52 250.74 376.53 233.57C376.44 232.83 376.78 232.1 377.4 231.64L377.42 231.63ZM349.3 197.15C348.47 197.52 347.47 197.37 346.79 196.77C324.13 176.79 297.05 159.81 267.77 150.13C243.34 142.04 216.73 143 192.07 135.49C158.35 125.21 128.28 92.54 143.22 57.28C154.16 31.48 187.74 18.89 215.42 20.6C241.27 22.2 265.7 35.19 282.34 54.07C282.93 54.74 283.83 55.43 284.67 55.68C284.65 55.7 284.63 55.72 284.61 55.74C276.65 64 267.51 67.77 260.69 69.52C259.11 69.92 259.1 72.14 260.67 72.55C266.87 74.16 274.92 77.44 282.34 84.26C291.49 92.67 295.44 102.55 297.17 109.34C297.56 110.87 299.71 110.91 300.17 109.4C302.14 102.99 305.26 96.94 309.34 91.62C313.24 86.52 318.48 80.87 324.91 79.2C333.06 77.08 342.2 76.89 350.56 77.26C370 78.14 388.91 84.71 403.29 98.15C407.47 102.05 411.3 106.59 413.43 111.95C415.72 117.71 415.63 124.37 414.52 130.39C411.95 144.33 403.43 156.77 393.77 166.82C381.25 179.84 365.72 189.82 349.28 197.17L349.3 197.15Z" fill="url(#paint8_linear_455_730)"/>
</g>
<defs>
<linearGradient id="paint0_linear_455_730" x1="653.98" y1="97.9399" x2="49.0902" y2="702.83" gradientUnits="userSpaceOnUse">
<stop stop-color="#25A9E0"/>
<stop offset="0.22" stop-color="#6EC6EA"/>
<stop offset="0.52" stop-color="#D5EEF9"/>
<stop offset="0.66" stop-color="white"/>
</linearGradient>
<linearGradient id="paint1_linear_455_730" x1="812.15" y1="117.5" x2="292.65" y2="637" gradientUnits="userSpaceOnUse">
<stop stop-color="#25A9E0"/>
<stop offset="0.22" stop-color="#6EC6EA"/>
<stop offset="0.52" stop-color="#D5EEF9"/>
<stop offset="0.66" stop-color="white"/>
</linearGradient>
<linearGradient id="paint2_linear_455_730" x1="994.06" y1="108.15" x2="472.39" y2="629.83" gradientUnits="userSpaceOnUse">
<stop stop-color="#25A9E0"/>
<stop offset="0.22" stop-color="#6EC6EA"/>
<stop offset="0.52" stop-color="#D5EEF9"/>
<stop offset="0.66" stop-color="white"/>
</linearGradient>
<linearGradient id="paint3_linear_455_730" x1="1177.19" y1="74.0195" x2="604.41" y2="646.799" gradientUnits="userSpaceOnUse">
<stop stop-color="#25A9E0"/>
<stop offset="0.22" stop-color="#6EC6EA"/>
<stop offset="0.52" stop-color="#D5EEF9"/>
<stop offset="0.66" stop-color="white"/>
</linearGradient>
<linearGradient id="paint4_linear_455_730" x1="1316.09" y1="100.8" x2="830.08" y2="586.81" gradientUnits="userSpaceOnUse">
<stop stop-color="#25A9E0"/>
<stop offset="0.22" stop-color="#6EC6EA"/>
<stop offset="0.52" stop-color="#D5EEF9"/>
<stop offset="0.66" stop-color="white"/>
</linearGradient>
<linearGradient id="paint5_linear_455_730" x1="1455.94" y1="94.3498" x2="969.93" y2="580.36" gradientUnits="userSpaceOnUse">
<stop stop-color="#25A9E0"/>
<stop offset="0.22" stop-color="#6EC6EA"/>
<stop offset="0.52" stop-color="#D5EEF9"/>
<stop offset="0.66" stop-color="white"/>
</linearGradient>
<linearGradient id="paint6_linear_455_730" x1="1544" y1="100.76" x2="1110.5" y2="534.259" gradientUnits="userSpaceOnUse">
<stop stop-color="#25A9E0"/>
<stop offset="0.22" stop-color="#6EC6EA"/>
<stop offset="0.52" stop-color="#D5EEF9"/>
<stop offset="0.66" stop-color="white"/>
</linearGradient>
<linearGradient id="paint7_linear_455_730" x1="1696.18" y1="45.9995" x2="1123.39" y2="618.79" gradientUnits="userSpaceOnUse">
<stop stop-color="#25A9E0"/>
<stop offset="0.22" stop-color="#6EC6EA"/>
<stop offset="0.52" stop-color="#D5EEF9"/>
<stop offset="0.66" stop-color="white"/>
</linearGradient>
<linearGradient id="paint8_linear_455_730" x1="98.1399" y1="131.2" x2="498.55" y2="320.63" gradientUnits="userSpaceOnUse">
<stop stop-color="#25A9E0"/>
<stop offset="0.35" stop-color="#75C8EB"/>
<stop offset="0.71" stop-color="#C5E8F7"/>
<stop offset="0.77" stop-color="#D9F0F9"/>
<stop offset="0.86" stop-color="#F4FAFD"/>
<stop offset="0.92" stop-color="white"/>
</linearGradient>
<clipPath id="clip0_455_730">
<rect width="1617" height="387" fill="white"/>
</clipPath>
</defs>
</svg>
