<?xml version="1.0" encoding="UTF-8"?>
<svg id="Layer_1" data-name="Layer 1" xmlns="http://www.w3.org/2000/svg" viewBox="0 0 1158.3 343.49">
  <defs>
    <style>
      .cls-1, .cls-2 {
        stroke-width: 0px;
      }

      .cls-2 {
        fill: #fff;
      }
    </style>
  </defs>
  <path class="cls-2" d="m142.22,171.7c-.99-10.76-5.6-21.25-13.84-29.49-1.53-1.53-3.15-2.95-4.83-4.23-9.78-7.48-21.78-10.68-33.47-9.61-9.51.87-18.81,4.58-26.53,11.13,6.36-5.24,14.3-8.64,22.99-9.37,1.17-.1,2.35-.15,3.54-.15s2.37.05,3.54.15c10.27.75,19.64,4.73,27.1,10.94,9.02,7.5,15.24,18.26,16.87,30.46.28,2.09.43,4.24.43,6.41,0,11.65-4.16,22.33-11.07,30.64-8.54,10.27-21.29,16.91-35.6,17.28,14.95-.34,28.4-6.74,38-16.84,9.8-10.37,14.09-24.04,12.88-37.31Z"/>
  <path class="cls-2" d="m126.95,208.56c6.91-8.3,11.07-18.98,11.07-30.64,0-2.17-.14-4.31-.43-6.41-1.63-12.2-7.85-22.96-16.87-30.46-7.46-6.2-16.83-10.19-27.1-10.94,11.37.95,21.44,6.46,28.38,14.7,0,0,0,0,0,0,0,0,0,.01.01.02.02.02.04.05.06.07,6.7,7.8,10.48,17.25,11.34,26.91,1.04,11.75-2.24,23.82-9.85,33.61-1.23,1.58-2.56,3.1-4.01,4.55-8.27,8.27-18.81,12.89-29.61,13.86-13.23,1.19-26.86-3.12-37.19-12.9,9.43,8.98,22.1,14.6,36.08,14.92.42,0,.84.01,1.26.01s.84,0,1.26-.01c14.31-.37,27.06-7.01,35.6-17.28Z"/>
  <path class="cls-2" d="m138.08,196.81s.02-.04.03-.06c.18-.34.35-.68.52-1.02.03-.06.06-.12.09-.18.15-.3.29-.61.44-.91.05-.11.1-.21.15-.32.12-.26.24-.52.35-.78.07-.16.14-.32.21-.48.09-.21.18-.42.27-.63.09-.21.17-.43.26-.64.06-.16.13-.32.19-.48.1-.27.21-.53.3-.8.04-.11.08-.22.12-.33.12-.32.23-.64.34-.96.02-.06.04-.12.06-.18.12-.36.24-.73.36-1.1,0-.02.01-.04.02-.06,1.26-4.04,2.04-8.21,2.33-12.4,0,0,0-.01,0-.02.12-1.71.16-3.43.11-5.15-.41-14.26-7.04-26.97-17.28-35.49-8.3-6.91-18.98-11.07-30.64-11.07-2.17,0-4.31.14-6.41.43-12.2,1.63-22.96,7.85-30.46,16.87-6.17,7.42-10.15,16.74-10.92,26.94,0,0,0-.02,0-.03.05-.55.11-1.09.18-1.63,0,0,0-.02,0-.02.31-2.41.83-4.76,1.53-7.02,0,0,0-.01,0-.02.17-.56.36-1.11.56-1.66.01-.03.02-.06.03-.09.19-.52.39-1.04.6-1.55.02-.06.05-.12.07-.18.2-.48.41-.97.63-1.44.04-.09.08-.18.12-.27.21-.45.43-.9.66-1.34.06-.11.11-.22.17-.33.22-.43.45-.85.69-1.27.07-.12.13-.23.2-.35.24-.42.49-.83.75-1.24.07-.11.13-.22.2-.32.28-.43.56-.85.85-1.27.05-.08.11-.16.16-.24.33-.47.67-.93,1.02-1.38.02-.03.04-.05.06-.08.73-.94,1.49-1.86,2.3-2.73.03-.04.07-.07.1-.11.36-.39.73-.77,1.1-1.15.02-.02.04-.05.07-.07s.05-.04.07-.07c.38-.37.76-.74,1.15-1.1.04-.03.07-.07.11-.1.54-.49,1.08-.97,1.65-1.43,7.72-6.54,17.02-10.25,26.53-11.13,11.68-1.07,23.69,2.13,33.47,9.61,1.68,1.28,3.3,2.69,4.83,4.23,8.24,8.24,12.85,18.73,13.84,29.49,1.22,13.26-3.08,26.93-12.88,37.31.55-.58,1.08-1.16,1.61-1.76,0,0,.01-.01.02-.02,2.76-3.17,5.15-6.66,7.12-10.41Z"/>
  <path class="cls-2" d="m144.11,167.91c-.29-4.18-1.07-8.34-2.33-12.38-.01-.03-.02-.07-.03-.1-.11-.35-.23-.7-.34-1.05-.03-.08-.05-.15-.08-.23-.1-.3-.21-.61-.32-.91-.05-.13-.09-.25-.14-.38-.09-.25-.19-.5-.29-.75-.07-.18-.14-.36-.21-.53-.08-.2-.16-.39-.24-.59-.1-.23-.19-.46-.29-.69-.06-.14-.12-.28-.18-.42-.12-.28-.25-.56-.38-.84-.04-.09-.08-.17-.12-.26-.15-.33-.31-.65-.47-.98-.02-.04-.04-.07-.05-.11-2.86-5.77-6.72-10.96-11.35-15.34-10.36-9.74-23.99-14.01-37.22-12.79-10.76.99-21.25,5.6-29.49,13.84-1.53,1.53-2.95,3.15-4.23,4.83-7.48,9.78-10.68,21.78-9.61,33.47.87,9.49,4.57,18.77,11.09,26.48-.28-.34-.56-.69-.84-1.05-.01-.02-.03-.04-.04-.06-.35-.46-.7-.93-1.03-1.4-.05-.07-.1-.15-.15-.22-.29-.42-.58-.85-.86-1.29-.07-.1-.13-.21-.2-.31-.26-.41-.51-.83-.76-1.25-.07-.11-.13-.23-.19-.34-.24-.42-.47-.85-.7-1.28-.06-.11-.11-.21-.16-.32-.23-.44-.45-.89-.66-1.35-.04-.09-.08-.18-.12-.26-.15-.34-.31-.68-.45-1.02-.03-.07-.06-.15-.09-.22-.03-.07-.05-.13-.08-.2-.03-.06-.05-.12-.07-.18-.06-.15-.13-.31-.19-.46-.02-.06-.04-.11-.07-.17-.09-.23-.18-.45-.26-.68-.02-.04-.03-.08-.04-.13-.01-.04-.03-.08-.04-.11-.01-.03-.02-.06-.03-.09-.17-.46-.33-.93-.48-1.4,0,0,0-.01,0-.02-.03-.08-.05-.16-.07-.24,0,0,0-.01,0-.02-.7-2.26-1.22-4.61-1.53-7.02,0,0,0-.02,0-.02-.03-.27-.07-.54-.1-.81-.03-.27-.06-.55-.08-.82-.02-.22-.03-.45-.05-.67-.08-1.01-.12-2.03-.12-3.05s.05-2.05.12-3.05c.02-.21.03-.43.05-.64.78-10.21,4.75-19.52,10.92-26.94,7.5-9.02,18.26-15.24,30.46-16.87,2.09-.28,4.24-.43,6.41-.43,11.65,0,22.33,4.16,30.64,11.07,10.24,8.52,16.87,21.22,17.28,35.49-.02-.79-.06-1.59-.11-2.38,0,0,0-.02,0-.03Z"/>
  <path class="cls-2" d="m89.93,223.82c10.8-.97,21.34-5.59,29.61-13.86,1.45-1.45,2.79-2.97,4.01-4.55,7.61-9.79,10.89-21.86,9.85-33.61-.85-9.66-4.63-19.11-11.34-26.91.37.44.72.88,1.07,1.33.05.07.1.13.15.2.32.42.63.84.93,1.27.08.11.15.22.23.33.27.39.53.78.79,1.18.09.14.17.27.26.41.24.38.47.77.7,1.16.08.14.16.28.24.43.22.39.44.79.65,1.19.07.13.14.27.21.4.21.42.42.84.62,1.27.05.11.1.22.15.34.21.45.41.91.6,1.37.03.08.07.17.1.25.2.49.39.99.57,1.49.02.05.04.1.06.16.19.53.37,1.06.53,1.6,0,.03.02.05.02.08.17.56.33,1.12.48,1.68,0,0,0,.02,0,.02.15.57.29,1.15.42,1.74,0,0,0,0,0,0,.13.58.24,1.17.34,1.76,0,0,0,.02,0,.03.1.57.19,1.15.26,1.74,0,.03,0,.06.01.09.07.51.12,1.03.17,1.55.04.5.08,1,.1,1.51.04.74.07,1.49.07,2.24,0,.7-.02,1.39-.06,2.08-.02.5-.05.99-.1,1.49,0,0,0-.01,0-.02,0,0,0,.01,0,.02,0,.02,0,.04,0,.06-.77,10.27-4.78,19.64-11.01,27.08-7.57,9.04-18.43,15.26-30.73,16.8-1.98.25-4,.38-6.05.38-11.69,0-22.42-4.18-30.73-11.14-10.17-8.49-16.75-21.12-17.18-35.29.14,5.39,1.09,10.76,2.83,15.92.01.04.02.07.04.11.12.34.24.69.36,1.03.03.09.06.17.09.26.11.29.22.58.33.87.05.14.11.28.16.41.09.24.19.47.29.7.08.19.16.38.24.57.08.18.15.36.23.54.11.24.21.48.32.72.06.13.12.25.17.38.13.29.27.57.41.86.04.08.08.15.11.23.16.33.33.65.5.98.02.03.04.07.05.1.19.36.38.71.57,1.07h0c1.64,2.97,3.56,5.77,5.71,8.36,0,0,0,0,0,.01.27.32.53.64.81.95.02.02.04.04.06.06,1.11,1.27,2.27,2.48,3.49,3.64,10.33,9.78,23.96,14.08,37.19,12.9Z"/>
  <path class="cls-2" d="m129.35,185.81s0,.02-.01.03c-.2.54-.4,1.08-.62,1.61-.02.04-.03.08-.05.12-.21.51-.43,1.01-.65,1.5-.03.07-.06.14-.1.21-.22.47-.45.94-.68,1.4-.05.09-.09.18-.14.28-.23.44-.47.88-.72,1.32-.06.1-.11.2-.17.3-.25.43-.51.86-.78,1.29-.06.09-.12.19-.17.28-.28.45-.58.88-.88,1.32-.05.07-.09.13-.13.2-.34.48-.69.95-1.04,1.42-.01.01-.02.03-.03.04-.55.72-1.13,1.42-1.72,2.09,0,0,0,0,0,0-.16.19-.33.37-.5.55-.03.04-.07.08-.1.11-.02.02-.04.04-.05.06-.12.13-.25.27-.37.4-.06.07-.13.14-.19.2-.12.12-.24.24-.35.36-.08.08-.15.16-.23.24-.01.01-.03.03-.04.04s-.03.03-.04.04c-.08.08-.16.15-.24.23-.12.12-.24.24-.36.35-.07.06-.14.13-.2.19-.13.13-.26.25-.4.37-.02.02-.04.04-.06.05-.04.03-.08.07-.11.1-.18.17-.37.33-.55.5,0,0,0,0,0,0-.27.24-.55.47-.82.7-7.78,6.65-17.19,10.41-26.81,11.26-11.75,1.04-23.82-2.24-33.61-9.85-1.58-1.23-3.1-2.56-4.55-4.01-8.27-8.27-12.89-18.81-13.86-29.61-1.18-13.19,3.09-26.77,12.8-37.09-.11.12-.22.23-.32.35-.13.14-.27.28-.4.42-.11.12-.21.24-.32.36-.17.2-.35.39-.52.59-.12.14-.24.29-.36.43-.15.18-.3.35-.45.53-.15.18-.29.36-.43.53-.12.15-.24.3-.36.45-.13.17-.26.34-.39.51-.13.16-.25.33-.38.49-.12.16-.24.33-.36.49-.13.18-.26.35-.39.53-.11.16-.22.32-.34.48-.13.19-.26.37-.39.56-.11.16-.21.32-.32.48-.13.19-.26.38-.38.57-.08.13-.17.26-.25.39-.14.23-.29.45-.43.68-.05.08-.1.16-.14.24-.17.28-.34.56-.51.85-.05.09-.1.18-.16.28-.16.28-.32.55-.47.83-.05.09-.09.18-.14.26-.15.28-.31.57-.46.85,0,0,0,0,0,.01-.02.04-.04.08-.06.11-.16.31-.32.63-.48.95-.02.05-.05.09-.07.14-.02.03-.03.06-.05.1-.14.28-.27.56-.41.85-.05.1-.09.2-.14.29-.12.27-.24.53-.36.8-.07.15-.13.3-.2.46-.09.22-.18.43-.27.65-.09.21-.17.42-.26.63-.06.16-.13.32-.19.49-.1.27-.2.53-.3.8-.04.11-.08.22-.12.33-.12.32-.23.64-.34.96-.02.06-.04.12-.06.17-.12.37-.24.74-.36,1.11,0,.01,0,.03-.01.04-1.79,5.73-2.6,11.7-2.44,17.65.43,14.17,7.01,26.8,17.18,35.29,8.32,6.95,19.04,11.14,30.73,11.14,2.05,0,4.07-.13,6.05-.38,12.31-1.55,23.16-7.76,30.73-16.8,6.23-7.44,10.24-16.81,11.01-27.08,0,0,0,0,0,.01-.31,3.65-1.1,7.16-2.29,10.48Z"/>
  <path class="cls-2" d="m88.62,117.56c-14.17.43-26.8,7.01-35.29,17.18-6.95,8.32-11.14,19.04-11.14,30.73,0,2.05.13,4.07.38,6.05,1.55,12.31,7.76,23.16,16.8,30.73,7.44,6.23,16.81,10.24,27.08,11.01,0,0,0,0-.01,0-3.65-.31-7.16-1.1-10.47-2.29,0,0-.01,0-.02,0,0,0,0,0-.01,0-.54-.2-1.08-.4-1.61-.62-.02,0-.05-.02-.07-.03-.02,0-.04-.02-.05-.02-.51-.21-1-.43-1.5-.65-.04-.02-.08-.03-.12-.05-.03-.01-.06-.03-.09-.04-.47-.22-.93-.45-1.39-.68-.05-.03-.11-.05-.16-.08-.04-.02-.07-.04-.11-.06-.44-.23-.88-.47-1.32-.72-.06-.03-.12-.07-.19-.1-.04-.02-.08-.05-.12-.07-.43-.25-.86-.51-1.29-.78-.09-.06-.19-.12-.28-.18-.44-.28-.88-.58-1.32-.88-.07-.05-.13-.09-.2-.14-.48-.34-.95-.69-1.42-1.04-.01-.01-.03-.02-.04-.03-.95-.73-1.88-1.51-2.76-2.32-.02-.02-.04-.04-.06-.06-.41-.37-.8-.76-1.2-1.15-.02-.02-.03-.03-.05-.05-.01-.01-.03-.03-.04-.04-.39-.39-.77-.79-1.14-1.19-.02-.02-.05-.05-.07-.07-.51-.56-1.01-1.13-1.49-1.72-6.52-7.71-10.22-16.99-11.09-26.48-1.07-11.68,2.13-23.69,9.61-33.47,1.28-1.68,2.69-3.3,4.23-4.83,8.24-8.24,18.73-12.85,29.49-13.84,13.23-1.21,26.86,3.05,37.22,12.79-3.61-3.42-7.69-6.34-12.13-8.67,0,0,0,0-.01,0-.35-.18-.71-.36-1.06-.54-.05-.02-.1-.05-.14-.07-.31-.15-.63-.3-.94-.45-.1-.05-.2-.09-.29-.14-.27-.12-.53-.24-.8-.36-.15-.07-.3-.13-.46-.2-.22-.09-.43-.18-.65-.27-.21-.09-.42-.17-.63-.26-.16-.06-.32-.13-.49-.19-.27-.1-.53-.2-.8-.3-.11-.04-.22-.08-.33-.12-.32-.12-.64-.23-.96-.34-.06-.02-.12-.04-.17-.06-.37-.12-.74-.24-1.11-.36-.01,0-.03,0-.04-.01-5.73-1.79-11.7-2.6-17.65-2.44Z"/>
  <path class="cls-2" d="m37.96,171.54c.97,10.8,5.59,21.34,13.86,29.61,1.45,1.45,2.97,2.79,4.55,4.01,9.79,7.61,21.86,10.89,33.61,9.85,9.62-.85,19.03-4.61,26.81-11.26-.41.34-.83.68-1.25,1-.05.04-.1.08-.15.12-.43.33-.86.65-1.31.96-.1.07-.19.13-.29.2-.4.28-.81.55-1.22.82-.12.08-.24.15-.36.23-.4.25-.8.49-1.2.73-.13.07-.25.14-.38.22-.41.23-.82.46-1.24.68-.12.06-.23.12-.35.18-.44.22-.88.44-1.32.65-.09.04-.19.09-.28.13-.47.22-.95.43-1.44.62-.06.03-.12.05-.19.08-.51.21-1.03.41-1.56.6-.03.01-.06.02-.09.03-.55.2-1.11.38-1.67.56,0,0,0,0,0,0-2.81.87-5.74,1.46-8.77,1.72-.02,0-.05,0-.07,0,0,0,0,0,0,0-1.17.1-2.36.15-3.55.15s-2.38-.05-3.55-.15c0,0-.01,0-.02,0-.02,0-.04,0-.06,0-10.27-.77-19.63-4.78-27.08-11.01-9.04-7.57-15.26-18.43-16.8-30.73-.25-1.98-.38-4-.38-6.05,0-11.69,4.18-22.42,11.14-30.73,8.49-10.17,21.12-16.75,35.29-17.18-4.98.13-9.95.95-14.74,2.45-.01,0-.02,0-.04.01-.37.12-.74.24-1.12.36-.06.02-.11.04-.17.06-.32.11-.65.23-.97.34-.11.04-.21.08-.32.12-.27.1-.54.2-.81.31-.16.06-.32.12-.47.19-.21.09-.43.17-.64.26-.21.09-.42.18-.64.27-.16.07-.31.13-.47.2-.26.12-.53.23-.79.36-.1.05-.2.09-.31.14-.28.13-.56.27-.84.4-.03.01-.06.03-.09.04-.05.03-.1.05-.16.08-.32.16-.63.32-.94.48-.04.02-.07.04-.11.05,0,0-.02.01-.03.02-.28.15-.56.3-.84.45-.09.05-.18.09-.26.14-.28.15-.55.31-.83.47-.09.05-.18.1-.28.16-.28.17-.57.34-.85.51-.08.05-.16.1-.24.14-.23.14-.45.29-.68.43-.13.08-.26.16-.39.25-.19.13-.38.26-.57.38-.16.11-.32.21-.48.32-.19.13-.37.26-.56.39-.16.11-.32.22-.48.34-.18.13-.35.26-.53.39-.16.12-.33.24-.49.36-.16.12-.33.25-.49.38-.17.13-.34.26-.51.39-.15.12-.3.24-.45.36-.18.14-.36.29-.53.43-.18.15-.36.3-.53.45-.14.12-.29.24-.43.36-.2.17-.39.35-.59.52-.12.11-.24.21-.36.32-.18.16-.35.33-.53.5-.13.12-.26.24-.39.37-.16.15-.32.31-.47.46-.14.14-.29.28-.43.42-.19.19-.37.38-.56.57-.11.11-.22.22-.32.33-.05.05-.09.1-.14.15-9.71,10.32-13.98,23.9-12.8,37.09Z"/>
  <path class="cls-2" d="m178.82,213.12c2.86-14.15,1.98-29.24-3.32-43.8-3.25-8.92-7.89-16.93-13.6-23.87-8.29-10.06-18.81-17.86-30.53-22.93l-.07.08c-5.08-2.17-10.39-3.83-15.84-4.93-13.91-2.81-28.73-2.01-43.06,3.05,18.56-6.46,38.32-2.21,52.46,9.55h0c6.81,5.74,12.29,13.23,15.67,22.12.09.25.18.49.27.74.09.25.18.49.27.74,9.62,27.66-4.52,57.99-31.9,68.4-.25.09-.49.18-.74.27-.25.09-.49.18-.74.27-14.33,5.06-29.15,5.86-43.06,3.05-5.45-1.1-10.75-2.76-15.84-4.93l-28.38,33.82-2.54,3.02c-18.52,22.07-15.64,54.98,6.43,73.5h0c22.07,18.52,54.98,15.64,73.5-6.43l53.89-64.22,6.1-7.27,6.84-8.15c6.99-9.53,11.84-20.49,14.19-32.09Z"/>
  <path class="cls-2" d="m55.57,213.23h0c-6.81-5.74-12.29-13.23-15.67-22.12-.09-.25-.18-.49-.27-.74-.09-.25-.18-.49-.27-.74-9.62-27.66,4.52-57.99,31.9-68.4.25-.09.49-.18.74-.27.25-.09.49-.18.74-.27,14.33-5.06,29.15-5.86,43.06-3.05,5.45,1.1,10.75,2.76,15.84,4.93l28.38-33.82,2.55-3.04c18.52-22.07,15.64-54.98-6.43-73.5h0c-22.07-18.52-54.98-15.64-73.5,6.43L28.73,82.88l-6.1,7.27-6.84,8.15c-6.99,9.53-11.84,20.49-14.19,32.09-2.86,14.15-1.98,29.24,3.32,43.8,3.25,8.92,7.89,16.93,13.6,23.87,2.74,3.33,5.72,6.4,8.91,9.22l3.1,2.6c5.67,4.52,11.9,8.25,18.52,11.11l.07-.08c5.08,2.17,10.39,3.83,15.84,4.93,13.91,2.81,28.73,2.01,43.06-3.05-18.56,6.46-38.32,2.21-52.46-9.55Z"/>
  <g>
    <g>
      <path class="cls-1" d="m213,101.69h60.46v54.96h-60.46v-54.96Zm0,137.03h60.46v55.33h-60.46v-55.33Z"/>
      <path class="cls-1" d="m306.07,290.02v-50.2c21.98,8.06,44.33,13.92,72.91,13.92s38.1-8.43,38.1-23.08-6.23-18.69-30.04-23.45l-18.32-3.66c-39.2-7.33-63.02-24.55-63.02-76.21,0-46.53,28.94-76.94,91.23-76.94,39.2,0,58.26,5.86,72.91,12.82v49.46c-17.22-5.86-38.47-11.72-66.32-11.72-22.35,0-33.71,6.96-33.71,21.25,0,12.82,7.33,17.95,28.95,22.35l18.32,3.3c43.6,8.43,67.42,25.65,67.42,75.48,0,52.76-33.71,81.34-97.46,81.34-34.44,0-63.39-5.13-80.97-14.66Z"/>
      <path class="cls-1" d="m509.05,212.71V54.79h69.25v155.35c0,31.51,12.82,44.33,39.94,44.33s38.47-12.82,38.47-44.7V54.79h61.55v157.55c0,61.19-32.24,92.33-102.22,92.33s-106.99-30.78-106.99-91.96Z"/>
      <path class="cls-1" d="m754.17,54.42h103.32c62.29,0,93.43,23.82,93.43,76.94,0,33.71-15.02,50.93-40.67,61.92v1.47l54.96,105.89h-71.81l-44.7-89.77h-25.65v89.77h-68.88V54.42Zm94.16,115.05c24.55,0,34.08-11.72,34.08-34.81s-9.89-33.34-35.17-33.34h-24.92v68.15h26.01Z"/>
      <path class="cls-1" d="m985,54.42h170.01v49.46h-101.86v46.9h79.51v48.36h-79.51v52.03h105.16v49.46h-173.3V54.42Z"/>
    </g>
    <g>
      <path class="cls-2" d="m213,101.69h60.46v54.96h-60.46v-54.96Zm0,137.03h60.46v55.33h-60.46v-55.33Z"/>
      <path class="cls-2" d="m306.07,290.02v-50.2c21.98,8.06,44.33,13.92,72.91,13.92s38.1-8.43,38.1-23.08-6.23-18.69-30.04-23.45l-18.32-3.66c-39.2-7.33-63.02-24.55-63.02-76.21,0-46.53,28.94-76.94,91.23-76.94,39.2,0,58.26,5.86,72.91,12.82v49.46c-17.22-5.86-38.47-11.72-66.32-11.72-22.35,0-33.71,6.96-33.71,21.25,0,12.82,7.33,17.95,28.95,22.35l18.32,3.3c43.6,8.43,67.42,25.65,67.42,75.48,0,52.76-33.71,81.34-97.46,81.34-34.44,0-63.39-5.13-80.97-14.66Z"/>
      <path class="cls-2" d="m509.05,212.71V54.79h69.25v155.35c0,31.51,12.82,44.33,39.94,44.33s38.47-12.82,38.47-44.7V54.79h61.55v157.55c0,61.19-32.24,92.33-102.22,92.33s-106.99-30.78-106.99-91.96Z"/>
      <path class="cls-2" d="m754.17,54.42h103.32c62.29,0,93.43,23.82,93.43,76.94,0,33.71-15.02,50.93-40.67,61.92v1.47l54.96,105.89h-71.81l-44.7-89.77h-25.65v89.77h-68.88V54.42Zm94.16,115.05c24.55,0,34.08-11.72,34.08-34.81s-9.89-33.34-35.17-33.34h-24.92v68.15h26.01Z"/>
      <path class="cls-2" d="m985,54.42h170.01v49.46h-101.86v46.9h79.51v48.36h-79.51v52.03h105.16v49.46h-173.3V54.42Z"/>
    </g>
  </g>
</svg>