<?xml version="1.0" encoding="utf-8"?>
<!-- Generator: Adobe Illustrator 28.0.0, SVG Export Plug-In . SVG Version: 6.00 Build 0)  -->
<svg version="1.1" id="Layer_1" xmlns="http://www.w3.org/2000/svg" xmlns:xlink="http://www.w3.org/1999/xlink" x="0px" y="0px"
	 viewBox="0 0 1500 1500" style="enable-background:new 0 0 1500 1500;" xml:space="preserve">
<style type="text/css">
	.st0{fill:#231F20;}
</style>
<g>
	<path class="st0" d="M325.79,765.29c-0.99-10.76-5.6-21.25-13.84-29.49c-1.53-1.53-3.15-2.95-4.83-4.23
		c-9.78-7.48-21.78-10.68-33.47-9.61c-9.51,0.87-18.81,4.58-26.53,11.13c6.36-5.24,14.3-8.64,22.99-9.37
		c1.17-0.1,2.35-0.15,3.54-0.15c1.19,0,2.37,0.05,3.54,0.15c10.27,0.75,19.64,4.73,27.1,10.94c9.02,7.5,15.24,18.26,16.87,30.46
		c0.28,2.09,0.43,4.24,0.43,6.41c0,11.65-4.16,22.33-11.07,30.64c-8.54,10.27-21.29,16.91-35.6,17.28c14.95-0.34,28.4-6.74,38-16.84
		C322.72,792.23,327.01,778.56,325.79,765.29z"/>
	<path class="st0" d="M310.52,802.16c6.91-8.3,11.07-18.98,11.07-30.64c0-2.17-0.14-4.31-0.43-6.41
		c-1.63-12.2-7.85-22.96-16.87-30.46c-7.46-6.2-16.83-10.19-27.1-10.94c11.37,0.95,21.44,6.46,28.38,14.7c0,0-0.01-0.01-0.01-0.01
		c0,0.01,0.01,0.01,0.01,0.02c0.02,0.02,0.04,0.05,0.06,0.07c6.7,7.8,10.48,17.25,11.34,26.91c1.04,11.75-2.24,23.82-9.85,33.61
		c-1.23,1.58-2.56,3.1-4.01,4.55c-8.27,8.27-18.81,12.89-29.61,13.86c-13.23,1.19-26.86-3.12-37.19-12.9
		c9.43,8.98,22.1,14.6,36.08,14.92c0.42,0.01,0.84,0.01,1.26,0.01c0.42,0,0.84-0.01,1.26-0.01
		C289.23,819.06,301.98,812.42,310.52,802.16z"/>
	<path class="st0" d="M321.66,790.4c0.01-0.02,0.02-0.04,0.03-0.06c0.18-0.34,0.35-0.68,0.52-1.02c0.03-0.06,0.06-0.12,0.09-0.18
		c0.15-0.3,0.29-0.61,0.44-0.91c0.05-0.11,0.1-0.21,0.15-0.32c0.12-0.26,0.24-0.52,0.35-0.78c0.07-0.16,0.14-0.32,0.21-0.48
		c0.09-0.21,0.18-0.42,0.27-0.63c0.09-0.21,0.17-0.43,0.26-0.64c0.06-0.16,0.13-0.32,0.19-0.48c0.1-0.27,0.21-0.53,0.3-0.8
		c0.04-0.11,0.08-0.22,0.12-0.33c0.12-0.32,0.23-0.64,0.34-0.96c0.02-0.06,0.04-0.12,0.06-0.18c0.12-0.36,0.24-0.73,0.36-1.1
		c0.01-0.02,0.01-0.04,0.02-0.06c1.26-4.04,2.04-8.21,2.33-12.4c0-0.01,0-0.01,0-0.02c0.12-1.71,0.16-3.43,0.11-5.15
		c-0.41-14.26-7.04-26.97-17.28-35.49c-8.3-6.91-18.98-11.07-30.64-11.07c-2.17,0-4.31,0.14-6.41,0.43
		c-12.2,1.63-22.96,7.85-30.46,16.87c-6.17,7.42-10.15,16.74-10.92,26.94c0-0.01,0-0.02,0-0.03c0.05-0.55,0.11-1.09,0.18-1.63
		c0-0.01,0-0.02,0-0.02c0.31-2.41,0.83-4.76,1.53-7.02c0-0.01,0-0.01,0-0.02c0.17-0.56,0.36-1.11,0.56-1.66
		c0.01-0.03,0.02-0.06,0.03-0.09c0.19-0.52,0.39-1.04,0.6-1.55c0.02-0.06,0.05-0.12,0.07-0.18c0.2-0.48,0.41-0.97,0.63-1.44
		c0.04-0.09,0.08-0.18,0.12-0.27c0.21-0.45,0.43-0.9,0.66-1.34c0.06-0.11,0.11-0.22,0.17-0.33c0.22-0.43,0.45-0.85,0.69-1.27
		c0.07-0.12,0.13-0.23,0.2-0.35c0.24-0.42,0.49-0.83,0.75-1.24c0.07-0.11,0.13-0.22,0.2-0.32c0.28-0.43,0.56-0.85,0.85-1.27
		c0.05-0.08,0.11-0.16,0.16-0.24c0.33-0.47,0.67-0.93,1.02-1.38c0.02-0.03,0.04-0.05,0.06-0.08c0.73-0.94,1.49-1.86,2.3-2.73
		c0.03-0.04,0.07-0.07,0.1-0.11c0.36-0.39,0.73-0.77,1.1-1.15c0.02-0.02,0.04-0.05,0.07-0.07c0.02-0.02,0.05-0.04,0.07-0.07
		c0.38-0.37,0.76-0.74,1.15-1.1c0.04-0.03,0.07-0.07,0.11-0.1c0.54-0.49,1.08-0.97,1.65-1.43c7.72-6.54,17.02-10.25,26.53-11.13
		c11.68-1.07,23.69,2.13,33.47,9.61c1.68,1.28,3.3,2.69,4.83,4.23c8.24,8.24,12.85,18.73,13.84,29.49
		c1.22,13.26-3.08,26.93-12.88,37.31c0.55-0.58,1.08-1.16,1.61-1.76c0.01-0.01,0.01-0.01,0.02-0.02
		C317.3,797.65,319.69,794.15,321.66,790.4z"/>
	<path class="st0" d="M327.69,761.5c-0.29-4.18-1.07-8.34-2.33-12.38c-0.01-0.03-0.02-0.07-0.03-0.1c-0.11-0.35-0.23-0.7-0.34-1.05
		c-0.03-0.08-0.05-0.15-0.08-0.23c-0.1-0.3-0.21-0.61-0.32-0.91c-0.05-0.13-0.09-0.25-0.14-0.38c-0.09-0.25-0.19-0.5-0.29-0.75
		c-0.07-0.18-0.14-0.36-0.21-0.53c-0.08-0.2-0.16-0.39-0.24-0.59c-0.1-0.23-0.19-0.46-0.29-0.69c-0.06-0.14-0.12-0.28-0.18-0.42
		c-0.12-0.28-0.25-0.56-0.38-0.84c-0.04-0.09-0.08-0.17-0.12-0.26c-0.15-0.33-0.31-0.65-0.47-0.98c-0.02-0.04-0.04-0.07-0.05-0.11
		c-2.86-5.77-6.72-10.96-11.35-15.34c-10.36-9.74-23.99-14.01-37.22-12.79c-10.76,0.99-21.25,5.6-29.49,13.84
		c-1.53,1.53-2.95,3.15-4.23,4.83c-7.48,9.78-10.68,21.78-9.61,33.47c0.87,9.49,4.57,18.77,11.09,26.48
		c-0.28-0.34-0.56-0.69-0.84-1.05c-0.01-0.02-0.03-0.04-0.04-0.06c-0.35-0.46-0.7-0.93-1.03-1.4c-0.05-0.07-0.1-0.15-0.15-0.22
		c-0.29-0.42-0.58-0.85-0.86-1.29c-0.07-0.1-0.13-0.21-0.2-0.31c-0.26-0.41-0.51-0.83-0.76-1.25c-0.07-0.11-0.13-0.23-0.19-0.34
		c-0.24-0.42-0.47-0.85-0.7-1.28c-0.06-0.11-0.11-0.21-0.16-0.32c-0.23-0.44-0.45-0.89-0.66-1.35c-0.04-0.09-0.08-0.18-0.12-0.26
		c-0.15-0.34-0.31-0.68-0.45-1.02c-0.03-0.07-0.06-0.15-0.09-0.22c-0.03-0.07-0.05-0.13-0.08-0.2c-0.03-0.06-0.05-0.12-0.07-0.18
		c-0.06-0.15-0.13-0.31-0.19-0.46c-0.02-0.06-0.04-0.11-0.07-0.17c-0.09-0.23-0.18-0.45-0.26-0.68c-0.02-0.04-0.03-0.08-0.04-0.13
		c-0.01-0.04-0.03-0.08-0.04-0.11c-0.01-0.03-0.02-0.06-0.03-0.09c-0.17-0.46-0.33-0.93-0.48-1.4c0-0.01,0-0.01-0.01-0.02
		c-0.03-0.08-0.05-0.16-0.07-0.24c0-0.01,0-0.01,0-0.02c-0.7-2.26-1.22-4.61-1.53-7.02c0-0.01,0-0.02,0-0.02
		c-0.03-0.27-0.07-0.54-0.1-0.81c-0.03-0.27-0.06-0.55-0.08-0.82c-0.02-0.22-0.03-0.45-0.05-0.67c-0.08-1.01-0.12-2.03-0.12-3.05
		s0.05-2.05,0.12-3.05c0.02-0.21,0.03-0.43,0.05-0.64c0.78-10.21,4.75-19.52,10.92-26.94c7.5-9.02,18.26-15.24,30.46-16.87
		c2.09-0.28,4.24-0.43,6.41-0.43c11.65,0,22.33,4.16,30.64,11.07c10.24,8.52,16.87,21.22,17.28,35.49
		c-0.02-0.79-0.06-1.59-0.11-2.38C327.69,761.52,327.69,761.51,327.69,761.5z"/>
	<path class="st0" d="M273.51,817.41c10.8-0.97,21.34-5.59,29.61-13.86c1.45-1.45,2.79-2.97,4.01-4.55
		c7.61-9.79,10.89-21.86,9.85-33.61c-0.85-9.66-4.63-19.11-11.34-26.91c0.37,0.44,0.72,0.88,1.07,1.33c0.05,0.07,0.1,0.13,0.15,0.2
		c0.32,0.42,0.63,0.84,0.93,1.27c0.08,0.11,0.15,0.22,0.23,0.33c0.27,0.39,0.53,0.78,0.79,1.18c0.09,0.14,0.17,0.27,0.26,0.41
		c0.24,0.38,0.47,0.77,0.7,1.16c0.08,0.14,0.16,0.28,0.24,0.43c0.22,0.39,0.44,0.79,0.65,1.19c0.07,0.13,0.14,0.27,0.21,0.4
		c0.21,0.42,0.42,0.84,0.62,1.27c0.05,0.11,0.1,0.22,0.15,0.34c0.21,0.45,0.41,0.91,0.6,1.37c0.03,0.08,0.07,0.17,0.1,0.25
		c0.2,0.49,0.39,0.99,0.57,1.49c0.02,0.05,0.04,0.1,0.06,0.16c0.19,0.53,0.37,1.06,0.53,1.6c0.01,0.03,0.02,0.05,0.02,0.08
		c0.17,0.56,0.33,1.12,0.48,1.68c0,0.01,0,0.02,0.01,0.02c0.15,0.57,0.29,1.15,0.42,1.74c0,0,0,0,0,0c0.13,0.58,0.24,1.17,0.34,1.76
		c0,0.01,0,0.02,0,0.03c0.1,0.57,0.19,1.15,0.26,1.74c0,0.03,0.01,0.06,0.01,0.09c0.07,0.51,0.12,1.03,0.17,1.55
		c0.04,0.5,0.08,1,0.1,1.51c0.04,0.74,0.07,1.49,0.07,2.24c0,0.7-0.02,1.39-0.06,2.08c-0.02,0.5-0.05,0.99-0.1,1.49
		c0-0.01,0-0.01,0-0.02c0,0.01,0,0.01,0,0.02c0,0.02,0,0.04-0.01,0.06c-0.77,10.27-4.78,19.63-11.01,27.08
		c-7.57,9.04-18.43,15.26-30.73,16.8c-1.98,0.25-4,0.38-6.05,0.38c-11.69,0-22.42-4.18-30.73-11.14
		c-10.17-8.49-16.75-21.12-17.18-35.29c0.14,5.39,1.09,10.76,2.83,15.92c0.01,0.04,0.02,0.07,0.04,0.11
		c0.12,0.34,0.24,0.69,0.36,1.03c0.03,0.09,0.06,0.17,0.09,0.26c0.11,0.29,0.22,0.58,0.33,0.87c0.05,0.14,0.11,0.28,0.16,0.41
		c0.09,0.24,0.19,0.47,0.29,0.7c0.08,0.19,0.16,0.38,0.24,0.57c0.08,0.18,0.15,0.36,0.23,0.54c0.11,0.24,0.21,0.48,0.32,0.72
		c0.06,0.13,0.12,0.25,0.17,0.38c0.13,0.29,0.27,0.57,0.41,0.86c0.04,0.08,0.08,0.15,0.11,0.23c0.16,0.33,0.33,0.65,0.5,0.98
		c0.02,0.03,0.04,0.07,0.05,0.1c0.19,0.36,0.38,0.71,0.57,1.07c0,0,0,0,0,0.01c1.64,2.97,3.56,5.76,5.71,8.36
		c0,0,0.01,0.01,0.01,0.01c0.27,0.32,0.53,0.64,0.81,0.95c0.02,0.02,0.04,0.04,0.06,0.06c1.11,1.27,2.27,2.48,3.49,3.64
		C246.65,814.3,260.27,818.6,273.51,817.41z"/>
	<path class="st0" d="M312.93,779.41c0,0.01-0.01,0.02-0.01,0.03c-0.2,0.54-0.4,1.08-0.62,1.61c-0.02,0.04-0.03,0.08-0.05,0.12
		c-0.21,0.51-0.43,1.01-0.65,1.5c-0.03,0.07-0.06,0.14-0.1,0.21c-0.22,0.47-0.45,0.94-0.68,1.4c-0.05,0.09-0.09,0.18-0.14,0.28
		c-0.23,0.44-0.47,0.88-0.72,1.32c-0.06,0.1-0.11,0.2-0.17,0.3c-0.25,0.43-0.51,0.86-0.78,1.29c-0.06,0.09-0.12,0.19-0.17,0.28
		c-0.28,0.45-0.58,0.88-0.88,1.32c-0.05,0.07-0.09,0.13-0.13,0.2c-0.34,0.48-0.69,0.95-1.04,1.42c-0.01,0.01-0.02,0.03-0.03,0.04
		c-0.55,0.72-1.13,1.42-1.72,2.09c0,0,0,0.01-0.01,0.01c-0.16,0.19-0.33,0.37-0.5,0.55c-0.03,0.04-0.07,0.08-0.1,0.11
		c-0.02,0.02-0.04,0.04-0.05,0.06c-0.12,0.13-0.25,0.27-0.37,0.4c-0.06,0.07-0.13,0.14-0.19,0.2c-0.12,0.12-0.24,0.24-0.35,0.36
		c-0.08,0.08-0.15,0.16-0.23,0.24c-0.01,0.01-0.03,0.03-0.04,0.04c-0.01,0.01-0.03,0.03-0.04,0.04c-0.08,0.08-0.16,0.15-0.24,0.23
		c-0.12,0.12-0.24,0.24-0.36,0.35c-0.07,0.06-0.14,0.13-0.2,0.19c-0.13,0.13-0.26,0.25-0.4,0.37c-0.02,0.02-0.04,0.04-0.06,0.05
		c-0.04,0.03-0.08,0.07-0.11,0.1c-0.18,0.17-0.37,0.33-0.55,0.5c0,0-0.01,0-0.01,0.01c-0.27,0.24-0.55,0.47-0.82,0.7
		c-7.78,6.65-17.19,10.41-26.81,11.26c-11.75,1.04-23.82-2.24-33.61-9.85c-1.58-1.23-3.1-2.56-4.55-4.01
		c-8.27-8.27-12.89-18.81-13.86-29.61c-1.18-13.19,3.09-26.77,12.8-37.09c-0.11,0.12-0.22,0.23-0.32,0.35
		c-0.13,0.14-0.27,0.28-0.4,0.42c-0.11,0.12-0.21,0.24-0.32,0.36c-0.17,0.2-0.35,0.39-0.52,0.59c-0.12,0.14-0.24,0.29-0.36,0.43
		c-0.15,0.18-0.3,0.35-0.45,0.53c-0.15,0.18-0.29,0.36-0.43,0.53c-0.12,0.15-0.24,0.3-0.36,0.45c-0.13,0.17-0.26,0.34-0.39,0.51
		c-0.13,0.16-0.25,0.33-0.38,0.49c-0.12,0.16-0.24,0.33-0.36,0.49c-0.13,0.18-0.26,0.35-0.39,0.53c-0.11,0.16-0.22,0.32-0.34,0.48
		c-0.13,0.19-0.26,0.37-0.39,0.56c-0.11,0.16-0.21,0.32-0.32,0.48c-0.13,0.19-0.26,0.38-0.38,0.57c-0.08,0.13-0.17,0.26-0.25,0.39
		c-0.14,0.23-0.29,0.45-0.43,0.68c-0.05,0.08-0.1,0.16-0.14,0.24c-0.17,0.28-0.34,0.56-0.51,0.85c-0.05,0.09-0.1,0.18-0.16,0.28
		c-0.16,0.28-0.32,0.55-0.47,0.83c-0.05,0.09-0.09,0.18-0.14,0.26c-0.15,0.28-0.31,0.57-0.46,0.85c0,0,0,0.01-0.01,0.01
		c-0.02,0.04-0.04,0.08-0.06,0.11c-0.16,0.31-0.32,0.63-0.48,0.95c-0.02,0.05-0.05,0.09-0.07,0.14c-0.02,0.03-0.03,0.06-0.05,0.1
		c-0.14,0.28-0.27,0.56-0.41,0.85c-0.05,0.1-0.09,0.2-0.14,0.29c-0.12,0.27-0.24,0.53-0.36,0.8c-0.07,0.15-0.13,0.3-0.2,0.46
		c-0.09,0.22-0.18,0.43-0.27,0.65c-0.09,0.21-0.17,0.42-0.26,0.63c-0.06,0.16-0.13,0.32-0.19,0.49c-0.1,0.27-0.2,0.53-0.3,0.8
		c-0.04,0.11-0.08,0.22-0.12,0.33c-0.12,0.32-0.23,0.64-0.34,0.96c-0.02,0.06-0.04,0.12-0.06,0.17c-0.12,0.37-0.24,0.74-0.36,1.11
		c0,0.01-0.01,0.03-0.01,0.04c-1.79,5.73-2.6,11.7-2.44,17.65c0.43,14.17,7.01,26.8,17.18,35.29c8.32,6.95,19.04,11.14,30.73,11.14
		c2.05,0,4.07-0.13,6.05-0.38c12.31-1.55,23.16-7.76,30.73-16.8c6.23-7.44,10.24-16.81,11.01-27.08c0,0,0,0.01,0,0.01
		C314.91,772.58,314.12,776.09,312.93,779.41z"/>
	<path class="st0" d="M272.2,711.15c-14.17,0.43-26.8,7.01-35.29,17.18c-6.95,8.32-11.14,19.04-11.14,30.73
		c0,2.05,0.13,4.07,0.38,6.05c1.55,12.31,7.76,23.16,16.8,30.73c7.44,6.23,16.81,10.24,27.08,11.01c0,0-0.01,0-0.01,0
		c-3.65-0.31-7.16-1.1-10.47-2.29c-0.01,0-0.01,0-0.02-0.01c0,0-0.01,0-0.01-0.01c-0.54-0.2-1.08-0.4-1.61-0.62
		c-0.02-0.01-0.05-0.02-0.07-0.03c-0.02-0.01-0.04-0.02-0.05-0.02c-0.51-0.21-1-0.43-1.5-0.65c-0.04-0.02-0.08-0.03-0.12-0.05
		c-0.03-0.01-0.06-0.03-0.09-0.04c-0.47-0.22-0.93-0.45-1.39-0.68c-0.05-0.03-0.11-0.05-0.16-0.08c-0.04-0.02-0.07-0.04-0.11-0.06
		c-0.44-0.23-0.88-0.47-1.32-0.72c-0.06-0.03-0.12-0.07-0.19-0.1c-0.04-0.02-0.08-0.05-0.12-0.07c-0.43-0.25-0.86-0.51-1.29-0.78
		c-0.09-0.06-0.19-0.12-0.28-0.18c-0.44-0.28-0.88-0.58-1.32-0.88c-0.07-0.05-0.13-0.09-0.2-0.14c-0.48-0.34-0.95-0.69-1.42-1.04
		c-0.01-0.01-0.03-0.02-0.04-0.03c-0.95-0.73-1.88-1.51-2.76-2.32c-0.02-0.02-0.04-0.04-0.06-0.06c-0.41-0.37-0.8-0.76-1.2-1.15
		c-0.02-0.02-0.03-0.03-0.05-0.05c-0.01-0.01-0.03-0.03-0.04-0.04c-0.39-0.39-0.77-0.79-1.14-1.19c-0.02-0.02-0.05-0.05-0.07-0.07
		c-0.51-0.56-1.01-1.13-1.49-1.72c-6.52-7.71-10.22-16.99-11.09-26.48c-1.07-11.68,2.13-23.69,9.61-33.47
		c1.28-1.68,2.69-3.3,4.23-4.83c8.24-8.24,18.73-12.85,29.49-13.84c13.23-1.21,26.86,3.05,37.22,12.79
		c-3.61-3.42-7.69-6.34-12.13-8.67c0,0-0.01-0.01-0.01-0.01c-0.35-0.18-0.71-0.36-1.06-0.54c-0.05-0.02-0.1-0.05-0.14-0.07
		c-0.31-0.15-0.63-0.3-0.94-0.45c-0.1-0.05-0.2-0.09-0.29-0.14c-0.27-0.12-0.53-0.24-0.8-0.36c-0.15-0.07-0.3-0.13-0.46-0.2
		c-0.22-0.09-0.43-0.18-0.65-0.27c-0.21-0.09-0.42-0.17-0.63-0.26c-0.16-0.06-0.32-0.13-0.49-0.19c-0.27-0.1-0.53-0.2-0.8-0.3
		c-0.11-0.04-0.22-0.08-0.33-0.12c-0.32-0.12-0.64-0.23-0.96-0.34c-0.06-0.02-0.12-0.04-0.17-0.06c-0.37-0.12-0.74-0.24-1.11-0.36
		c-0.01,0-0.03-0.01-0.04-0.01C284.12,711.81,278.15,710.99,272.2,711.15z"/>
	<path class="st0" d="M221.54,765.14c0.97,10.8,5.59,21.34,13.86,29.61c1.45,1.45,2.97,2.79,4.55,4.01
		c9.79,7.61,21.86,10.89,33.61,9.85c9.62-0.85,19.03-4.61,26.81-11.26c-0.41,0.34-0.83,0.68-1.25,1c-0.05,0.04-0.1,0.08-0.15,0.12
		c-0.43,0.33-0.86,0.65-1.31,0.96c-0.1,0.07-0.19,0.13-0.29,0.2c-0.4,0.28-0.81,0.55-1.22,0.82c-0.12,0.08-0.24,0.15-0.36,0.23
		c-0.4,0.25-0.8,0.49-1.2,0.73c-0.13,0.07-0.25,0.14-0.38,0.22c-0.41,0.23-0.82,0.46-1.24,0.68c-0.12,0.06-0.23,0.12-0.35,0.18
		c-0.44,0.22-0.88,0.44-1.32,0.65c-0.09,0.04-0.19,0.09-0.28,0.13c-0.47,0.22-0.95,0.43-1.44,0.62c-0.06,0.03-0.12,0.05-0.19,0.08
		c-0.51,0.21-1.03,0.41-1.56,0.6c-0.03,0.01-0.06,0.02-0.09,0.03c-0.55,0.2-1.11,0.38-1.67,0.56c0,0,0,0,0,0
		c-2.81,0.87-5.74,1.46-8.77,1.72c-0.02,0-0.05,0.01-0.07,0.01c0,0,0,0-0.01,0c-1.17,0.1-2.36,0.15-3.55,0.15s-2.38-0.05-3.55-0.15
		c-0.01,0-0.01,0-0.02,0c-0.02,0-0.04,0-0.06-0.01c-10.27-0.77-19.63-4.78-27.08-11.01c-9.04-7.57-15.26-18.43-16.8-30.73
		c-0.25-1.98-0.38-4-0.38-6.05c0-11.69,4.18-22.42,11.14-30.73c8.49-10.17,21.12-16.75,35.29-17.18c-4.98,0.13-9.95,0.95-14.74,2.45
		c-0.01,0-0.02,0.01-0.04,0.01c-0.37,0.12-0.74,0.24-1.12,0.36c-0.06,0.02-0.11,0.04-0.17,0.06c-0.32,0.11-0.65,0.23-0.97,0.34
		c-0.11,0.04-0.21,0.08-0.32,0.12c-0.27,0.1-0.54,0.2-0.81,0.31c-0.16,0.06-0.32,0.12-0.47,0.19c-0.21,0.09-0.43,0.17-0.64,0.26
		c-0.21,0.09-0.42,0.18-0.64,0.27c-0.16,0.07-0.31,0.13-0.47,0.2c-0.26,0.12-0.53,0.23-0.79,0.36c-0.1,0.05-0.2,0.09-0.31,0.14
		c-0.28,0.13-0.56,0.27-0.84,0.4c-0.03,0.01-0.06,0.03-0.09,0.04c-0.05,0.03-0.1,0.05-0.16,0.08c-0.32,0.16-0.63,0.32-0.94,0.48
		c-0.04,0.02-0.07,0.04-0.11,0.05c-0.01,0.01-0.02,0.01-0.03,0.02c-0.28,0.15-0.56,0.3-0.84,0.45c-0.09,0.05-0.18,0.09-0.26,0.14
		c-0.28,0.15-0.55,0.31-0.83,0.47c-0.09,0.05-0.18,0.1-0.28,0.16c-0.28,0.17-0.57,0.34-0.85,0.51c-0.08,0.05-0.16,0.1-0.24,0.14
		c-0.23,0.14-0.45,0.29-0.68,0.43c-0.13,0.08-0.26,0.16-0.39,0.25c-0.19,0.13-0.38,0.26-0.57,0.38c-0.16,0.11-0.32,0.21-0.48,0.32
		c-0.19,0.13-0.37,0.26-0.56,0.39c-0.16,0.11-0.32,0.22-0.48,0.34c-0.18,0.13-0.35,0.26-0.53,0.39c-0.16,0.12-0.33,0.24-0.49,0.36
		c-0.16,0.12-0.33,0.25-0.49,0.38c-0.17,0.13-0.34,0.26-0.51,0.39c-0.15,0.12-0.3,0.24-0.45,0.36c-0.18,0.14-0.36,0.29-0.53,0.43
		c-0.18,0.15-0.36,0.3-0.53,0.45c-0.14,0.12-0.29,0.24-0.43,0.36c-0.2,0.17-0.39,0.35-0.59,0.52c-0.12,0.11-0.24,0.21-0.36,0.32
		c-0.18,0.16-0.35,0.33-0.53,0.5c-0.13,0.12-0.26,0.24-0.39,0.37c-0.16,0.15-0.32,0.31-0.47,0.46c-0.14,0.14-0.29,0.28-0.43,0.42
		c-0.19,0.19-0.37,0.38-0.56,0.57c-0.11,0.11-0.22,0.22-0.32,0.33c-0.05,0.05-0.09,0.1-0.14,0.15
		C224.63,738.37,220.36,751.95,221.54,765.14z"/>
	<path class="st0" d="M362.39,806.71c2.86-14.15,1.98-29.24-3.32-43.8c-3.25-8.92-7.89-16.93-13.6-23.87
		c-8.29-10.06-18.81-17.86-30.53-22.93l-0.07,0.08c-5.08-2.17-10.39-3.83-15.84-4.93c-13.91-2.81-28.73-2.01-43.06,3.05
		c18.56-6.46,38.32-2.21,52.46,9.55l0,0c6.81,5.74,12.29,13.23,15.67,22.12c0.09,0.25,0.18,0.49,0.27,0.74
		c0.09,0.25,0.18,0.49,0.27,0.74c9.62,27.66-4.52,57.99-31.9,68.4c-0.25,0.09-0.49,0.18-0.74,0.27s-0.49,0.18-0.74,0.27
		c-14.33,5.06-29.15,5.86-43.06,3.05c-5.45-1.1-10.75-2.76-15.84-4.93l-28.38,33.82l-2.54,3.02c-18.52,22.07-15.64,54.98,6.43,73.5
		l0,0c22.07,18.52,54.98,15.64,73.5-6.43l53.89-64.22l6.1-7.27l6.84-8.15C355.19,829.28,360.05,818.31,362.39,806.71z"/>
	<path class="st0" d="M239.14,806.83L239.14,806.83c-6.8-5.74-12.28-13.23-15.66-22.12c-0.09-0.25-0.18-0.49-0.27-0.74
		c-0.09-0.25-0.18-0.49-0.27-0.74c-9.62-27.66,4.52-57.99,31.9-68.4c0.25-0.09,0.49-0.18,0.74-0.27c0.25-0.09,0.49-0.18,0.74-0.27
		c14.33-5.06,29.15-5.86,43.06-3.05c5.45,1.1,10.75,2.76,15.84,4.93l28.38-33.82l2.55-3.04c18.52-22.07,15.64-54.98-6.43-73.5l0,0
		c-22.07-18.52-54.98-15.64-73.5,6.43l-53.9,64.24l-6.1,7.27l-6.84,8.15c-6.99,9.53-11.84,20.49-14.19,32.09
		c-2.86,14.15-1.98,29.24,3.32,43.8c3.25,8.92,7.89,16.93,13.6,23.87c2.74,3.33,5.72,6.4,8.91,9.22l3.1,2.6
		c5.67,4.52,11.9,8.25,18.52,11.11l0.07-0.08c5.08,2.17,10.39,3.83,15.84,4.93c13.91,2.81,28.73,2.01,43.06-3.05
		C273.05,822.83,253.28,818.59,239.14,806.83z"/>
	<g>
		<g>
			<path d="M396.58,695.28h60.46v54.96h-60.46V695.28z M396.58,832.32h60.46v55.33h-60.46V832.32z"/>
			<path d="M489.64,883.61v-50.2c21.98,8.06,44.33,13.92,72.91,13.92c27.48,0,38.1-8.43,38.1-23.08c0-14.29-6.23-18.69-30.04-23.45
				l-18.32-3.66c-39.2-7.33-63.02-24.55-63.02-76.21c0-46.53,28.94-76.94,91.23-76.94c39.2,0,58.26,5.86,72.91,12.82v49.46
				c-17.22-5.86-38.47-11.72-66.32-11.72c-22.35,0-33.71,6.96-33.71,21.25c0,12.82,7.33,17.95,28.95,22.35l18.32,3.3
				c43.6,8.43,67.42,25.65,67.42,75.48c0,52.76-33.71,81.34-97.46,81.34C536.18,898.27,507.23,893.14,489.64,883.61z"/>
			<path d="M692.63,806.3V648.39h69.25v155.35c0,31.51,12.82,44.33,39.94,44.33s38.47-12.82,38.47-44.7V648.39h61.55v157.55
				c0,61.19-32.24,92.33-102.22,92.33C728.53,898.27,692.63,867.49,692.63,806.3z"/>
			<path d="M937.74,648.02h103.32c62.29,0,93.43,23.82,93.43,76.94c0,33.71-15.02,50.93-40.67,61.92v1.47l54.96,105.89h-71.81
				l-44.7-89.77h-25.65v89.77h-68.88V648.02z M1031.91,763.07c24.55,0,34.08-11.72,34.08-34.81c0-23.08-9.89-33.34-35.17-33.34
				h-24.92v68.15H1031.91z"/>
			<path d="M1168.57,648.02h170.01v49.46h-101.86v46.9h79.51v48.36h-79.51v52.03h105.16v49.46h-173.3V648.02z"/>
		</g>
		<g>
			<path class="st0" d="M396.58,695.28h60.46v54.96h-60.46V695.28z M396.58,832.32h60.46v55.33h-60.46V832.32z"/>
			<path class="st0" d="M489.64,883.61v-50.2c21.98,8.06,44.33,13.92,72.91,13.92c27.48,0,38.1-8.43,38.1-23.08
				c0-14.29-6.23-18.69-30.04-23.45l-18.32-3.66c-39.2-7.33-63.02-24.55-63.02-76.21c0-46.53,28.94-76.94,91.23-76.94
				c39.2,0,58.26,5.86,72.91,12.82v49.46c-17.22-5.86-38.47-11.72-66.32-11.72c-22.35,0-33.71,6.96-33.71,21.25
				c0,12.82,7.33,17.95,28.95,22.35l18.32,3.3c43.6,8.43,67.42,25.65,67.42,75.48c0,52.76-33.71,81.34-97.46,81.34
				C536.18,898.27,507.23,893.14,489.64,883.61z"/>
			<path class="st0" d="M692.63,806.3V648.39h69.25v155.35c0,31.51,12.82,44.33,39.94,44.33s38.47-12.82,38.47-44.7V648.39h61.55
				v157.55c0,61.19-32.24,92.33-102.22,92.33C728.53,898.27,692.63,867.49,692.63,806.3z"/>
			<path class="st0" d="M937.74,648.02h103.32c62.29,0,93.43,23.82,93.43,76.94c0,33.71-15.02,50.93-40.67,61.92v1.47l54.96,105.89
				h-71.81l-44.7-89.77h-25.65v89.77h-68.88V648.02z M1031.91,763.07c24.55,0,34.08-11.72,34.08-34.81
				c0-23.08-9.89-33.34-35.17-33.34h-24.92v68.15H1031.91z"/>
			<path class="st0" d="M1168.57,648.02h170.01v49.46h-101.86v46.9h79.51v48.36h-79.51v52.03h105.16v49.46h-173.3V648.02z"/>
		</g>
	</g>
</g>
</svg>
