<svg width="14" height="8" viewBox="0 0 14 8" fill="none" xmlns="http://www.w3.org/2000/svg">
<path d="M13.3268 1.49625L7.41805 7.32894C7.36317 7.38317 7.298 7.42619 7.22627 7.45554C7.15454 7.48489 7.07765 7.5 7 7.5C6.92235 7.5 6.84546 7.48489 6.77373 7.45554C6.702 7.42619 6.63683 7.38317 6.58195 7.32894L0.673161 1.49625C0.562288 1.38681 0.5 1.23837 0.5 1.08359C0.5 0.928814 0.562288 0.780375 0.673161 0.67093C0.784034 0.561485 0.93441 0.5 1.09121 0.5C1.24801 0.5 1.39838 0.561485 1.50925 0.67093L7 6.09168L12.4907 0.67093C12.5456 0.616738 12.6108 0.573751 12.6825 0.544423C12.7543 0.515095 12.8312 0.5 12.9088 0.5C12.9864 0.5 13.0633 0.515095 13.135 0.544423C13.2068 0.573751 13.2719 0.616738 13.3268 0.67093C13.3817 0.725122 13.4253 0.789456 13.455 0.860261C13.4847 0.931066 13.5 1.00695 13.5 1.08359C13.5 1.16023 13.4847 1.23612 13.455 1.30692C13.4253 1.37773 13.3817 1.44206 13.3268 1.49625Z" fill="#4B5563"/>
</svg>
